<svg xmlns="http://www.w3.org/2000/svg" xmlns:xlink="http://www.w3.org/1999/xlink" viewBox="0 0 1696.96 2394.84"><defs><style>.cls-1,.cls-3,.cls-5,.cls-7{fill:none;}.cls-2{clip-path:url(#clip-path);}.cls-3{stroke:#cfdcd5;}.cls-3,.cls-5,.cls-7{stroke-miterlimit:10;}.cls-4{fill:#cfdcd5;}.cls-5{stroke:#242422;}.cls-6{fill:#242422;}.cls-7{stroke:#e9eddf;}.cls-8{fill:#e9eddf;}</style><clipPath id="clip-path" transform="translate(62.87 543.64)"><rect class="cls-1" y="8.49" width="641.17" height="1174"/></clipPath></defs><g id="Layer_2" data-name="Layer 2"><g id="careers"><g class="cls-2"><circle class="cls-3" cx="848.48" cy="1187.85" r="608.59"/><circle class="cls-3" cx="848.48" cy="1546.36" r="847.98"/><circle class="cls-3" cx="848.48" cy="848.48" r="847.98"/></g><polygon class="cls-4" points="1663.04 911.13 383.83 1019.21 383.83 2232.13 1663.04 2232.13 1663.04 911.13"/><line class="cls-5" x1="449.65" y1="1414.87" x2="1595.58" y2="1414.87"/><path class="cls-6" d="M1521.66,941.84v-8.28h-8.23v-2.82h8.23v-8.18h2.82v8.18h8.23v2.82h-8.23v8.28Z" transform="translate(62.87 543.64)"/><line class="cls-5" x1="449.65" y1="1537.87" x2="1595.58" y2="1537.87"/><line class="cls-5" x1="449.65" y1="1659.82" x2="1595.58" y2="1659.82"/><path class="cls-6" d="M1521.66,1064.84v-8.28h-8.23v-2.82h8.23v-8.18h2.82v8.18h8.23v2.82h-8.23v8.28Z" transform="translate(62.87 543.64)"/><path class="cls-6" d="M1521.66,1186.84v-8.28h-8.23v-2.82h8.23v-8.18h2.82v8.18h8.23v2.82h-8.23v8.28Z" transform="translate(62.87 543.64)"/><line class="cls-5" x1="449.65" y1="1782.87" x2="1595.58" y2="1782.87"/><line class="cls-5" x1="449.65" y1="1904.82" x2="1595.58" y2="1904.82"/><path class="cls-6" d="M1521.66,1309.84v-8.28h-8.23v-2.82h8.23v-8.18h2.82v8.18h8.23v2.82h-8.23v8.28Z" transform="translate(62.87 543.64)"/><line class="cls-7" x1="703.83" y1="553.63" x2="703.83" y2="996.63"/><path class="cls-8" d="M639.55,19.27V11h-8.23V8.18h8.23V0h2.82V8.18h8.23V11h-8.23v8.27Z" transform="translate(62.87 543.64)"/></g></g></svg>