<svg xmlns="http://www.w3.org/2000/svg" xmlns:xlink="http://www.w3.org/1999/xlink" viewBox="0 0 2268.33 1493.75"><defs><style>.cls-1,.cls-3,.cls-5{fill:none;}.cls-2{clip-path:url(#clip-path);}.cls-3{stroke:#cfdcd5;}.cls-3,.cls-5{stroke-miterlimit:10;}.cls-4{fill:#e9eddf;}.cls-5{stroke:#e9eddf;}</style><clipPath id="clip-path" transform="translate(987.33 781.35)"><rect class="cls-1" x="465.07" y="-454.67" width="350.85" height="1280.62" transform="translate(826.14 -454.86) rotate(90)"/></clipPath></defs><g id="Layer_2" data-name="Layer 2"><g id="collaborate"><g class="cls-2"><circle class="cls-3" cx="1062.43" cy="746.87" r="535.67"/><circle class="cls-3" cx="746.87" cy="746.87" r="746.37"/><circle class="cls-3" cx="1361.13" cy="746.87" r="746.37"/></g><path class="cls-4" d="M958.67,371.27V363h-8.22v-2.82h8.22V352h2.83v8.18h8.22V363H961.5v8.27Z" transform="translate(987.33 781.35)"/><path class="cls-4" d="M639.24,371.27V363H631v-2.82h8.22V352h2.83v8.18h8.22V363h-8.22v8.27Z" transform="translate(987.33 781.35)"/><path class="cls-4" d="M319.65,371.27V363h-8.22v-2.82h8.22V352h2.83v8.18h8.23V363h-8.23v8.27Z" transform="translate(987.33 781.35)"/><line class="cls-5" x1="987.33" y1="1143.34" x2="2268.33" y2="1143.34"/><path class="cls-4" d="M958.67,19.27V11h-8.22V8.18h8.22V0h2.83V8.18h8.22V11H961.5v8.27Z" transform="translate(987.33 781.35)"/><path class="cls-4" d="M639.24,19.27V11H631V8.18h8.22V0h2.83V8.18h8.22V11h-8.22v8.27Z" transform="translate(987.33 781.35)"/><path class="cls-4" d="M319.65,19.27V11h-8.22V8.18h8.22V0h2.83V8.18h8.23V11h-8.23v8.27Z" transform="translate(987.33 781.35)"/><line class="cls-5" x1="1308.12" y1="792.84" x2="1308.12" y2="1142.52"/><line class="cls-5" x1="1627.86" y1="792.84" x2="1627.86" y2="1142.47"/><line class="cls-5" x1="1947.42" y1="792.84" x2="1947.42" y2="1142.47"/><line class="cls-5" x1="987.33" y1="791.34" x2="2268.33" y2="791.34"/></g></g></svg>