<svg xmlns="http://www.w3.org/2000/svg" xmlns:xlink="http://www.w3.org/1999/xlink" viewBox="0 0 2108.01 1776.83"><defs><style>.cls-1,.cls-2,.cls-4{fill:none;}.cls-2{stroke:#e9eddf;}.cls-2,.cls-4{stroke-miterlimit:10;}.cls-3{clip-path:url(#clip-path);}.cls-4{stroke:#cfdcd5;}.cls-5{fill:#e9eddf;}</style><clipPath id="clip-path" transform="translate(93.34 491.88)"><rect class="cls-1" x="785.06" y="468.8" width="350.85" height="1280.62" transform="translate(2069.59 148.63) rotate(90)"/></clipPath></defs><g id="Layer_2" data-name="Layer 2"><g id="contact"><line class="cls-2" x1="2013.31" y1="1776.33" x2="93.34" y2="1776.33"/><g class="cls-3"><circle class="cls-4" cx="1062.43" cy="746.87" r="535.67"/><circle class="cls-4" cx="746.87" cy="746.87" r="746.37"/><circle class="cls-4" cx="1361.13" cy="746.87" r="746.37"/></g><path class="cls-5" d="M1278.65,943v-8.28h-8.22v-2.82h8.22v-8.17h2.83v8.17h8.22v2.82h-8.22V943Z" transform="translate(93.34 491.88)"/><path class="cls-5" d="M959.07,943v-8.28h-8.23v-2.82h8.23v-8.17h2.82v8.17h8.23v2.82h-8.23V943Z" transform="translate(93.34 491.88)"/><path class="cls-5" d="M959.23,943v-8.28H951v-2.82h8.23v-8.17h2.82v8.17h8.23v2.82h-8.23V943Z" transform="translate(93.34 491.88)"/><path class="cls-5" d="M639.64,943v-8.28h-8.23v-2.82h8.23v-8.17h2.82v8.17h8.23v2.82h-8.23V943Z" transform="translate(93.34 491.88)"/><line class="cls-2" x1="734.12" y1="1427.05" x2="734.12" y2="1776.73"/><line class="cls-2" x1="1053.86" y1="1427.05" x2="1053.86" y2="1776.69"/><line class="cls-2" x1="1373.42" y1="1427.05" x2="1373.42" y2="1776.69"/><line class="cls-2" x1="413.33" y1="1425.55" x2="1694.33" y2="1425.55"/><rect class="cls-5" x="733.29" y="491.88" width="640.12" height="640.12"/></g></g></svg>