<svg xmlns="http://www.w3.org/2000/svg" xmlns:xlink="http://www.w3.org/1999/xlink" viewBox="0 0 2161.45 1493.75"><defs><style>.cls-1,.cls-3,.cls-5{fill:none;}.cls-2{clip-path:url(#clip-path);}.cls-3{stroke:#cfdcd5;}.cls-3,.cls-5{stroke-miterlimit:10;}.cls-4{fill:#e9eddf;}.cls-5{stroke:#e9eddf;}</style><clipPath id="clip-path" transform="translate(880.45 270.39)"><rect class="cls-1" x="0.19" y="4.82" width="1280.62" height="386.01"/></clipPath></defs><g id="Layer_2" data-name="Layer 2"><g id="openings"><g class="cls-2"><circle class="cls-3" cx="1062.43" cy="746.87" r="535.67"/><circle class="cls-3" cx="746.87" cy="746.87" r="746.37"/><circle class="cls-3" cx="1361.13" cy="746.87" r="746.37"/></g><path class="cls-4" d="M958.67,395.65v-8.28h-8.22v-2.82h8.22v-8.18h2.83v8.18h8.22v2.82H961.5v8.28Z" transform="translate(880.45 270.39)"/><path class="cls-4" d="M639.08,395.65v-8.28h-8.22v-2.82h8.22v-8.18h2.83v8.18h8.22v2.82h-8.22v8.28Z" transform="translate(880.45 270.39)"/><path class="cls-4" d="M319.17,395.65v-8.28H311v-2.82h8.22v-8.18H322v8.18h8.23v2.82H322v8.28Z" transform="translate(880.45 270.39)"/><line class="cls-5" x1="880.45" y1="656.4" x2="2161.45" y2="656.4"/><line class="cls-5" x1="1201.24" y1="270.39" x2="1201.24" y2="657.39"/><line class="cls-5" x1="1520.98" y1="270.39" x2="1520.98" y2="657.34"/><line class="cls-5" x1="1840.54" y1="270.39" x2="1840.54" y2="657.39"/></g></g></svg>