<svg xmlns="http://www.w3.org/2000/svg" xmlns:xlink="http://www.w3.org/1999/xlink" viewBox="0 0 1766.62 4375.27"><defs><style>.cls-1,.cls-3,.cls-4{fill:none;}.cls-2{clip-path:url(#clip-path);}.cls-3{stroke:#cfdcd5;}.cls-3,.cls-4{stroke-miterlimit:10;}.cls-4{stroke:#e9eddf;}.cls-5,.cls-7,.cls-8{fill:#e9eddf;}.cls-10,.cls-11,.cls-6{fill:#242422;}.cls-7{font-size:16px;font-family:Poppins-Light, Poppins;font-weight:300;}.cls-8{font-size:25px;font-family:BebasNeueBold, Bebas Neue;letter-spacing:0.04em;}.cls-9{fill:#fff;}.cls-10{font-size:9px;font-family:Poppins-Bold, Poppins;font-weight:700;letter-spacing:0.03em;}.cls-11{font-size:9.47px;font-family:Wingdings3, "Wingdings 3";letter-spacing:0.03em;}</style><clipPath id="clip-path" transform="translate(486.78)"><rect class="cls-1" x="416.23" y="2213.43" width="448.16" height="1280.62" transform="translate(3494.05 2213.43) rotate(90)"/></clipPath></defs><g id="Layer_2" data-name="Layer 2"><g id="page1"><g class="cls-2"><circle class="cls-3" cx="817.06" cy="3212.99" r="586.04"/><circle class="cls-3" cx="817.06" cy="3558.22" r="816.56"/><circle class="cls-3" cx="817.06" cy="2886.2" r="816.56"/></g><line class="cls-4" x1="807.42" y1="2789.66" x2="807.42" y2="3077.12"/><line class="cls-4" x1="1127.16" y1="2761.22" x2="1127.16" y2="3077.12"/><line class="cls-4" x1="1446.71" y1="2729.97" x2="1446.71" y2="3077.06"/><path class="cls-5" d="M319.22,3086.69v-8.27H311v-2.83h8.22v-8.17h2.83v8.17h8.22v2.83h-8.22v8.27Z" transform="translate(486.78)"/><path class="cls-5" d="M958.51,3086.69v-8.27h-8.22v-2.83h8.22v-8.17h2.83v8.17h8.22v2.83h-8.22v8.27Z" transform="translate(486.78)"/><path class="cls-5" d="M638.92,3086.69v-8.27H630.7v-2.83h8.22v-8.17h2.83v8.17H650v2.83h-8.22v8.27Z" transform="translate(486.78)"/><line class="cls-4" x1="1766.62" y1="3077.12" x2="487.62" y2="3077.12"/><polygon class="cls-6" points="486.78 2815.92 1765.62 2709.35 1765.62 0 486.78 106.57 486.78 2815.92"/><polygon class="cls-5" points="1031.87 1017.16 994.65 1266.25 1204.52 1266.25 1239.55 1017.16 1031.87 1017.16"/><text class="cls-7" transform="translate(990.67 1355.65)">Designation</text><text class="cls-8" transform="translate(991.13 1326.7)">NAME</text><rect class="cls-9" x="990.67" y="1376.87" width="82.94" height="16.34"/><text class="cls-10" transform="translate(994.72 1388.72)">VIEW PROFILE</text><text class="cls-11" transform="translate(1061.8 1388.81)"></text><polygon class="cls-5" points="1435.47 1017.16 1398.25 1266.25 1608.13 1266.25 1643.16 1017.16 1435.47 1017.16"/><text class="cls-7" transform="translate(1394.27 1355.65)">Designation</text><text class="cls-8" transform="translate(1394.74 1326.7)">NAME</text><rect class="cls-9" x="1394.27" y="1376.87" width="82.94" height="16.34"/><text class="cls-10" transform="translate(1398.33 1388.72)">VIEW PROFILE</text><text class="cls-11" transform="translate(1465.41 1388.81)"></text><line class="cls-4" x1="553.24" y1="411.07" x2="1699.17" y2="411.07"/><line class="cls-4" x1="553.24" y1="1486.69" x2="1699.17" y2="1486.69"/><line class="cls-4" x1="553.24" y1="1578.88" x2="1699.17" y2="1578.88"/><line class="cls-4" x1="553.24" y1="1700.83" x2="1699.17" y2="1700.83"/><path class="cls-5" d="M1201.33,1649.5v-8.28h-8.22v-2.82h8.22v-8.18h2.83v8.18h8.22v2.82h-8.22v8.28Z" transform="translate(486.78)"/><line class="cls-4" x1="553.24" y1="1822.78" x2="1699.17" y2="1822.78"/><path class="cls-5" d="M1201.33,1771.44v-8.27h-8.22v-2.82h8.22v-8.18h2.83v8.18h8.22v2.82h-8.22v8.27Z" transform="translate(486.78)"/><line class="cls-4" x1="553.24" y1="1944.73" x2="1699.17" y2="1944.73"/><path class="cls-5" d="M1201.33,1893.39v-8.27h-8.22v-2.83h8.22v-8.17h2.83v8.17h8.22v2.83h-8.22v8.27Z" transform="translate(486.78)"/><line class="cls-4" x1="553.24" y1="2066.68" x2="1699.17" y2="2066.68"/><path class="cls-5" d="M1201.33,2015.34v-8.27h-8.22v-2.83h8.22v-8.17h2.83v8.17h8.22v2.83h-8.22v8.27Z" transform="translate(486.78)"/><line class="cls-4" x1="553.24" y1="2188.63" x2="1699.17" y2="2188.63"/><path class="cls-5" d="M1201.33,2137.29V2129h-8.22v-2.83h8.22V2118h2.83v8.17h8.22V2129h-8.22v8.27Z" transform="translate(486.78)"/><line class="cls-4" x1="553.24" y1="2310.58" x2="1699.17" y2="2310.58"/><path class="cls-5" d="M1201.33,2259.24V2251h-8.22v-2.82h8.22V2240h2.83v8.18h8.22V2251h-8.22v8.28Z" transform="translate(486.78)"/><line class="cls-4" x1="553.24" y1="2432.52" x2="1699.17" y2="2432.52"/><path class="cls-5" d="M1201.33,2381.19v-8.28h-8.22v-2.82h8.22v-8.18h2.83v8.18h8.22v2.82h-8.22v8.28Z" transform="translate(486.78)"/><line class="cls-4" x1="553.24" y1="2554.47" x2="1699.17" y2="2554.47"/><path class="cls-5" d="M1201.33,2503.13v-8.27h-8.22V2492h8.22v-8.18h2.83V2492h8.22v2.82h-8.22v8.27Z" transform="translate(486.78)"/><polygon class="cls-5" points="628.26 1017.16 591.04 1266.25 800.92 1266.25 835.95 1017.16 628.26 1017.16"/><polygon class="cls-5" points="628.26 525.61 591.04 774.7 800.92 774.7 835.95 525.61 628.26 525.61"/><polygon class="cls-5" points="1031.87 525.61 994.65 774.7 1204.52 774.7 1239.55 525.61 1031.87 525.61"/><polygon class="cls-5" points="1430.38 525.61 1393.16 774.7 1603.03 774.7 1638.06 525.61 1430.38 525.61"/></g></g></svg>