<svg xmlns="http://www.w3.org/2000/svg" xmlns:xlink="http://www.w3.org/1999/xlink" viewBox="0 0 2118.53 2856.62"><defs><style>.cls-1,.cls-7,.cls-9{fill:none;}.cls-2{fill:#242422;}.cls-3{fill:#333532;}.cls-4{fill:#cfdcd5;}.cls-5{fill:#bbbdbf;}.cls-6{clip-path:url(#clip-path);}.cls-7{stroke:#cfdcd5;}.cls-7,.cls-9{stroke-miterlimit:10;}.cls-8{fill:#e9eddf;}.cls-9{stroke:#e9eddf;}</style><clipPath id="clip-path" transform="translate(837.53 855.69)"><rect class="cls-1" x="1.16" y="319.61" width="1280.62" height="215.48"/></clipPath></defs><g id="Layer_2" data-name="Layer 2"><g id="page1"><rect class="cls-2" x="1798.83" y="1077.73" width="319.58" height="97.57"/><rect class="cls-3" x="1478.42" y="1077.73" width="320.41" height="97.57"/><rect class="cls-2" x="1159.43" y="1077.73" width="319.57" height="97.57"/><rect class="cls-4" x="1798.83" y="855.69" width="319.58" height="222.03"/><rect class="cls-5" x="1479.23" y="855.69" width="319.58" height="222.03"/><rect class="cls-4" x="1159.43" y="855.69" width="319.58" height="222.03"/><rect class="cls-3" x="837.53" y="1077.73" width="321.79" height="97.57"/><rect class="cls-5" x="838.69" y="855.69" width="320.74" height="222.03"/><line class="cls-2" x1="837.53" y1="1175.3" x2="2118.53" y2="1175.3"/><g class="cls-6"><circle class="cls-7" cx="1012.06" cy="1416.89" r="725.99"/><circle class="cls-7" cx="1012.06" cy="1844.56" r="1011.56"/><circle class="cls-7" cx="1012.06" cy="1012.06" r="1011.56"/></g><path class="cls-8" d="M320.38,329.65v-8.28h-8.22v-2.82h8.22v-8.18h2.83v8.18h8.22v2.82h-8.22v8.28Z" transform="translate(837.53 855.69)"/><path class="cls-8" d="M959.67,329.65v-8.28h-8.22v-2.82h8.22v-8.18h2.83v8.18h8.22v2.82H962.5v8.28Z" transform="translate(837.53 855.69)"/><path class="cls-8" d="M640.08,329.65v-8.28h-8.22v-2.82h8.22v-8.18h2.83v8.18h8.22v2.82h-8.22v8.28Z" transform="translate(837.53 855.69)"/><line class="cls-9" x1="1159.32" y1="1175.3" x2="1159.32" y2="1390.78"/><line class="cls-9" x1="1479.06" y1="1175.3" x2="1479.06" y2="1390.78"/><line class="cls-9" x1="1798.62" y1="1175.3" x2="1798.62" y2="1390.78"/></g></g></svg>