<?xml version="1.0" encoding="utf-8"?>
<svg viewBox="110.176 823.83 1279 325.47" xmlns="http://www.w3.org/2000/svg">
  <line class="cls-4" x1="429.976" y1="852.27" x2="429.976" y2="1139.73" style="fill: none; stroke: rgb(233, 237, 223); stroke-miterlimit: 10;"/>
  <line class="cls-4" x1="749.716" y1="823.83" x2="749.716" y2="1139.73" style="fill: none; stroke: rgb(233, 237, 223); stroke-miterlimit: 10;"/>
  <path class="cls-5" d="M 428.556 1149.3 L 428.556 1141.03 L 420.336 1141.03 L 420.336 1138.2 L 428.556 1138.2 L 428.556 1130.03 L 431.386 1130.03 L 431.386 1138.2 L 439.606 1138.2 L 439.606 1141.03 L 431.386 1141.03 L 431.386 1149.3 Z" style="fill: rgb(233, 237, 223);"/>
  <path class="cls-5" d="M 1067.846 1149.3 L 1067.846 1141.03 L 1059.626 1141.03 L 1059.626 1138.2 L 1067.846 1138.2 L 1067.846 1130.03 L 1070.676 1130.03 L 1070.676 1138.2 L 1078.896 1138.2 L 1078.896 1141.03 L 1070.676 1141.03 L 1070.676 1149.3 Z" style="fill: rgb(233, 237, 223);"/>
  <path class="cls-5" d="M 748.256 1149.3 L 748.256 1141.03 L 740.036 1141.03 L 740.036 1138.2 L 748.256 1138.2 L 748.256 1130.03 L 751.086 1130.03 L 751.086 1138.2 L 759.336 1138.2 L 759.336 1141.03 L 751.116 1141.03 L 751.116 1149.3 Z" style="fill: rgb(233, 237, 223);"/>
  <line class="cls-4" x1="1389.176" y1="1139.73" x2="110.176" y2="1139.73" style="fill: none; stroke: rgb(233, 237, 223); stroke-miterlimit: 10;"/>
</svg>