<svg xmlns="http://www.w3.org/2000/svg" viewBox="0 0 1281 361.17"><defs><style>.cls-1{fill:#e9eddf;}.cls-2{fill:none;stroke:#e9eddf;stroke-miterlimit:10;}</style></defs><g id="Layer_2" data-name="Layer 2"><g id="contact"><path class="cls-1" d="M958.67,19.27V11h-8.22V8.18h8.22V0h2.83V8.18h8.22V11H961.5v8.27Z"/><path class="cls-1" d="M639.08,19.27V11h-8.22V8.18h8.22V0h2.83V8.18h8.22V11h-8.22v8.27Z"/><path class="cls-1" d="M639.24,19.27V11H631V8.18h8.22V0h2.83V8.18h8.22V11h-8.22v8.27Z"/><path class="cls-1" d="M319.65,19.27V11h-8.22V8.18h8.22V0h2.83V8.18h8.23V11h-8.23v8.27Z"/><line class="cls-2" x1="320.79" y1="11.49" x2="320.79" y2="361.17"/><line class="cls-2" x1="640.53" y1="11.49" x2="640.53" y2="361.12"/><line class="cls-2" x1="960.09" y1="11.49" x2="960.09" y2="361.12"/><line class="cls-2" y1="9.99" x2="1281" y2="9.99"/></g></g></svg>