<svg xmlns="http://www.w3.org/2000/svg" viewBox="0 0 8.55 18.49"><defs><style>.cls-1{fill:#e9eddf;fill-rule:evenodd;}</style></defs><g id="Layer_2" data-name="Layer 2"><g id="page2"><path class="cls-1" d="M0,9.26V6.06H1.88s0,0,0-.08c0-.45,0-.88,0-1.32s0-.82,0-1.23a4.34,4.34,0,0,1,.43-1.65A2.87,2.87,0,0,1,4.11.27,4.5,4.5,0,0,1,5.27,0c.28,0,.58,0,.87,0h2.3c.09,0,.09,0,.09.09v3c0,.08,0,.08-.09.08H6.76a1.84,1.84,0,0,0-.47.07.69.69,0,0,0-.57.66,7.4,7.4,0,0,0,0,.82c0,.42,0,.82,0,1.23a.17.17,0,0,0,0,.07H8.55c-.12,1.07-.23,2.14-.34,3.2H5.76c-.08,0-.08,0-.08.08v9.15H1.89V9.38c0-.14,0-.12-.12-.12H0Z"/></g></g></svg>