<svg xmlns="http://www.w3.org/2000/svg" viewBox="0 0 19.88 16.18"><defs><style>.cls-1{fill:#e9eddf;fill-rule:evenodd;}</style></defs><g id="Layer_2" data-name="Layer 2"><g id="page2"><path class="cls-1" d="M19.88,1.92v0a2.17,2.17,0,0,1-.36.55,7.34,7.34,0,0,1-.89,1A8.06,8.06,0,0,1,18,4a.22.22,0,0,0-.1.19v.58a10.16,10.16,0,0,1-.13,1.56,11.44,11.44,0,0,1-.47,1.94,13,13,0,0,1-.84,2,13.44,13.44,0,0,1-1.25,1.86,6.78,6.78,0,0,1-.62.69A10,10,0,0,1,13.21,14a8.11,8.11,0,0,1-1.15.75,10.54,10.54,0,0,1-2,.9A11.84,11.84,0,0,1,8,16.1a8.89,8.89,0,0,1-.89.07H5.7A9.09,9.09,0,0,1,3,15.76a11.66,11.66,0,0,1-2.24-.9l-.7-.41c-.08,0-.09-.08,0-.13a1.22,1.22,0,0,1,.27,0,5.27,5.27,0,0,0,1.05,0c.31,0,.61,0,.9-.08a8.14,8.14,0,0,0,2.12-.65,8.72,8.72,0,0,0,1.5-.89l0,0a3.47,3.47,0,0,0-.45-.06,4.28,4.28,0,0,1-1.38-.48,3.87,3.87,0,0,1-1-.83,3.71,3.71,0,0,1-.7-1.05,3.65,3.65,0,0,1-.14-.35c0-.11,0-.17.12-.14a4.07,4.07,0,0,0,.6.06,3.83,3.83,0,0,0,.94-.11,2.4,2.4,0,0,1-.52-.16c-.18-.07-.35-.17-.52-.25A3.1,3.1,0,0,1,2.36,9,4.29,4.29,0,0,1,1.21,7.67,4.44,4.44,0,0,1,.76,6.25a3.77,3.77,0,0,1,0-.47c0-.1.06-.13.15-.08a4.22,4.22,0,0,0,1.4.43.86.86,0,0,0,.17,0A5.24,5.24,0,0,1,2,5.7a3.83,3.83,0,0,1-.75-1A4,4,0,0,1,.79,3.22,4.2,4.2,0,0,1,1,1.46,4.59,4.59,0,0,1,1.26.83c.07-.13.12-.13.22,0s.35.4.54.59a9.06,9.06,0,0,0,1.12,1A11.51,11.51,0,0,0,4.7,3.49a11.13,11.13,0,0,0,2.12.94,12,12,0,0,0,2.06.46L9.62,5c.09,0,.1,0,.09-.1a3.18,3.18,0,0,1-.06-.43,4.09,4.09,0,0,1,0-.7A4.33,4.33,0,0,1,9.77,3a4.07,4.07,0,0,1,.79-1.53A3.88,3.88,0,0,1,12,.37a3.21,3.21,0,0,1,1-.33,2.17,2.17,0,0,1,.44,0h.76l.36,0a3.05,3.05,0,0,1,.85.23A4.16,4.16,0,0,1,16.48,1a1.35,1.35,0,0,1,.2.21.2.2,0,0,0,.17,0A9.29,9.29,0,0,0,18.32.76c.31-.14.61-.29.9-.44a.08.08,0,0,1,.11,0s0,.07,0,.1a3.42,3.42,0,0,1-.35.75,3.44,3.44,0,0,1-.74.91,2.18,2.18,0,0,1-.54.42h0a6.81,6.81,0,0,0,.92-.19,5.81,5.81,0,0,0,1.11-.38C19.79,1.91,19.84,1.87,19.88,1.92Z"/><path class="cls-1" d="M5.91,16.17h.67s0,0,0,0H5.91Z"/><path class="cls-1" d="M5.91,16.17H5.78s0,0,0,0Z"/><path class="cls-1" d="M6.58,16.18h.14s0,0,0,0Z"/><path class="cls-1" d="M13.57,0h0Z"/></g></g></svg>