<svg xmlns="http://www.w3.org/2000/svg" viewBox="0 0 16.87 16.86"><defs><style>.cls-1{isolation:isolate;}.cls-2{fill:#e9eddf;fill-rule:evenodd;}.cls-3{mix-blend-mode:overlay;}</style></defs><g class="cls-1"><g id="Layer_2" data-name="Layer 2"><g id="page2"><path class="cls-2" d="M16.79,4.57a5,5,0,0,0-.9-2.65A4.69,4.69,0,0,0,12.27.07C10.93,0,9.6,0,8.27,0H7.76A32.21,32.21,0,0,0,4.22.12a4.4,4.4,0,0,0-4,3.4A11.22,11.22,0,0,0,0,6.1c0,1.36,0,2.72,0,4.08a20.58,20.58,0,0,0,.11,2.48,4.45,4.45,0,0,0,3.39,4,11.8,11.8,0,0,0,2.58.23h4.1a18,18,0,0,0,2.44-.11,4.44,4.44,0,0,0,4.08-3.88,14.8,14.8,0,0,0,.14-2.5C16.85,8.43,16.92,6.51,16.79,4.57ZM15.33,9.51c0,.89,0,1.78-.07,2.67a3.33,3.33,0,0,1-1,2.31,3.21,3.21,0,0,1-1.74.72,12.14,12.14,0,0,1-2,.11H6.34a13.05,13.05,0,0,1-2.16-.13,3,3,0,0,1-2.55-2.7,19.19,19.19,0,0,1-.09-2c0-1.36,0-2.75,0-4.13a13.48,13.48,0,0,1,.13-2.19A2.94,2.94,0,0,1,4.36,1.64c.66-.08,1.34-.08,2-.11s1.39,0,2.08,0c1.25,0,2.5,0,3.74.07a3.22,3.22,0,0,1,2.34,1.06,3.24,3.24,0,0,1,.73,2C15.36,6.26,15.34,7.89,15.33,9.51Z"/><path class="cls-2" d="M12.94,4.94a1,1,0,0,1-1-1,1,1,0,1,1,1,1Z"/><path class="cls-2" d="M8.45,4.09a4.34,4.34,0,1,0,4.32,4.34A4.34,4.34,0,0,0,8.45,4.09Zm0,7.14a2.8,2.8,0,1,1,2.82-2.8A2.79,2.79,0,0,1,8.41,11.23Z"/><g class="cls-3"><path class="cls-2" d="M16.79,4.57a5,5,0,0,0-.9-2.65A4.69,4.69,0,0,0,12.27.07C10.93,0,9.6,0,8.27,0H7.76A32.21,32.21,0,0,0,4.22.12a4.4,4.4,0,0,0-4,3.4A11.22,11.22,0,0,0,0,6.1c0,1.36,0,2.72,0,4.08a20.58,20.58,0,0,0,.11,2.48,4.45,4.45,0,0,0,3.39,4,11.8,11.8,0,0,0,2.58.23h4.1a18,18,0,0,0,2.44-.11,4.44,4.44,0,0,0,4.08-3.88,14.8,14.8,0,0,0,.14-2.5C16.85,8.43,16.92,6.51,16.79,4.57ZM15.33,9.51c0,.89,0,1.78-.07,2.67a3.33,3.33,0,0,1-1,2.31,3.21,3.21,0,0,1-1.74.72,12.14,12.14,0,0,1-2,.11H6.34a13.05,13.05,0,0,1-2.16-.13,3,3,0,0,1-2.55-2.7,19.19,19.19,0,0,1-.09-2c0-1.36,0-2.75,0-4.13a13.48,13.48,0,0,1,.13-2.19A2.94,2.94,0,0,1,4.36,1.64c.66-.08,1.34-.08,2-.11s1.39,0,2.08,0c1.25,0,2.5,0,3.74.07a3.22,3.22,0,0,1,2.34,1.06,3.24,3.24,0,0,1,.73,2C15.36,6.26,15.34,7.89,15.33,9.51Z"/><path class="cls-2" d="M12.94,4.94a1,1,0,0,1-1-1,1,1,0,1,1,1,1Z"/></g></g></g></g></svg>