<svg xmlns="http://www.w3.org/2000/svg" viewBox="0 0 29.91 29.89"><defs><style>.cls-1{isolation:isolate;}.cls-2{fill:#e9eddf;fill-rule:evenodd;}.cls-3{mix-blend-mode:overlay;}</style></defs><g class="cls-1"><g id="Layer_2" data-name="Layer 2"><g id="company_intro" data-name="company intro"><path class="cls-2" d="M29.76,8.11a8.84,8.84,0,0,0-1.58-4.7A8.39,8.39,0,0,0,21.75.12C19.39,0,17,0,14.66,0h-.9A55.09,55.09,0,0,0,7.47.21a7.82,7.82,0,0,0-7,6A20.15,20.15,0,0,0,0,10.82c0,2.4,0,4.82,0,7.22a34.27,34.27,0,0,0,.21,4.41,7.88,7.88,0,0,0,6,7,20.62,20.62,0,0,0,4.57.4c2.42,0,4.85,0,7.26,0a33,33,0,0,0,4.34-.2,7.87,7.87,0,0,0,7.22-6.88,25.06,25.06,0,0,0,.26-4.43C29.88,14.94,30,11.54,29.76,8.11Zm-2.58,8.75c0,1.58,0,3.16-.12,4.74a5.9,5.9,0,0,1-1.81,4.1A5.77,5.77,0,0,1,22.16,27a22,22,0,0,1-3.54.19c-2.45,0-4.9,0-7.37,0a23.38,23.38,0,0,1-3.83-.23A5.2,5.2,0,0,1,2.9,22.14a30.1,30.1,0,0,1-.18-3.56c0-2.41,0-4.88,0-7.32A23,23,0,0,1,3,7.38,5.2,5.2,0,0,1,7.73,2.9c1.18-.14,2.37-.14,3.54-.19s2.46,0,3.69,0c2.21,0,4.43,0,6.63.12a5.76,5.76,0,0,1,4.15,1.88A5.82,5.82,0,0,1,27,8.23C27.24,11.1,27.19,14,27.18,16.86Z"/><path class="cls-2" d="M22.94,8.77a1.8,1.8,0,1,1,1.78-1.83A1.78,1.78,0,0,1,22.94,8.77Z"/><path class="cls-2" d="M15,7.26a7.68,7.68,0,1,0,7.65,7.68A7.69,7.69,0,0,0,15,7.26Zm-.07,12.65a5,5,0,1,1,5-5A5,5,0,0,1,14.92,19.91Z"/><g class="cls-3"><path class="cls-2" d="M29.76,8.11a8.84,8.84,0,0,0-1.58-4.7A8.39,8.39,0,0,0,21.75.12C19.39,0,17,0,14.66,0h-.9A55.09,55.09,0,0,0,7.47.21a7.82,7.82,0,0,0-7,6A20.15,20.15,0,0,0,0,10.82c0,2.4,0,4.82,0,7.22a34.27,34.27,0,0,0,.21,4.41,7.88,7.88,0,0,0,6,7,20.62,20.62,0,0,0,4.57.4c2.42,0,4.85,0,7.26,0a33,33,0,0,0,4.34-.2,7.87,7.87,0,0,0,7.22-6.88,25.06,25.06,0,0,0,.26-4.43C29.88,14.94,30,11.54,29.76,8.11Zm-2.58,8.75c0,1.58,0,3.16-.12,4.74a5.9,5.9,0,0,1-1.81,4.1A5.77,5.77,0,0,1,22.16,27a22,22,0,0,1-3.54.19c-2.45,0-4.9,0-7.37,0a23.38,23.38,0,0,1-3.83-.23A5.2,5.2,0,0,1,2.9,22.14a30.1,30.1,0,0,1-.18-3.56c0-2.41,0-4.88,0-7.32A23,23,0,0,1,3,7.38,5.2,5.2,0,0,1,7.73,2.9c1.18-.14,2.37-.14,3.54-.19s2.46,0,3.69,0c2.21,0,4.43,0,6.63.12a5.76,5.76,0,0,1,4.15,1.88A5.82,5.82,0,0,1,27,8.23C27.24,11.1,27.19,14,27.18,16.86Z"/><path class="cls-2" d="M22.94,8.77a1.8,1.8,0,1,1,1.78-1.83A1.78,1.78,0,0,1,22.94,8.77Z"/></g></g></g></g></svg>