<svg xmlns="http://www.w3.org/2000/svg" viewBox="0 0 15.16 32.79"><defs><style>.cls-1{fill:#e9eddf;fill-rule:evenodd;}</style></defs><g id="Layer_2" data-name="Layer 2"><g id="company_intro" data-name="company intro"><path class="cls-1" d="M0,16.41V10.75H3.33c0-.05,0-.09,0-.15,0-.8,0-1.55,0-2.34s0-1.45.06-2.18a7.65,7.65,0,0,1,.75-2.93A5.21,5.21,0,0,1,7.29.48,8.87,8.87,0,0,1,9.34.07c.51,0,1-.07,1.55-.07H15c.17,0,.17,0,.17.17V5.53c0,.15,0,.15-.17.15H12a2.89,2.89,0,0,0-.84.13,1.23,1.23,0,0,0-1,1.17c0,.47,0,1-.05,1.46,0,.73,0,1.44,0,2.17a.69.69,0,0,0,0,.13h5.07c-.2,1.9-.4,3.78-.6,5.66H10.22c-.15,0-.15,0-.15.14V32.79H3.35V16.63c0-.25,0-.21-.21-.21H0Z"/></g></g></svg>