<svg xmlns="http://www.w3.org/2000/svg" viewBox="0 0 1281 1458.25"><defs><style>.cls-1{fill:#e9eddf;}.cls-2{fill:none;stroke:#e9eddf;stroke-miterlimit:10;}</style></defs><g id="Layer_2" data-name="Layer 2"><g id="in_the_news" data-name="in the news"><path class="cls-1" d="M958.67,743.18V734.9h-8.22v-2.82h8.22V723.9h2.83v8.18h8.22v2.82H961.5v8.28Z"/><path class="cls-1" d="M639.08,743.18V734.9h-8.22v-2.82h8.22V723.9h2.83v8.18h8.22v2.82h-8.22v8.28Z"/><path class="cls-1" d="M958.67,1065.44v-8.27h-8.22v-2.83h8.22v-8.17h2.83v8.17h8.22v2.83H961.5v8.27Z"/><path class="cls-1" d="M639.08,1065.44v-8.27h-8.22v-2.83h8.22v-8.17h2.83v8.17h8.22v2.83h-8.22v8.27Z"/><path class="cls-1" d="M639.24,1065.44v-8.27H631v-2.83h8.22v-8.17h2.83v8.17h8.22v2.83h-8.22v8.27Z"/><path class="cls-1" d="M319.65,1065.44v-8.27h-8.22v-2.83h8.22v-8.17h2.83v8.17h8.23v2.83h-8.23v8.27Z"/><path class="cls-1" d="M958.67,424.3V416h-8.22V413.2h8.22V405h2.83v8.17h8.22V416H961.5v8.27Z"/><path class="cls-1" d="M639.08,424.3V416h-8.22V413.2h8.22V405h2.83v8.17h8.22V416h-8.22v8.27Z"/><path class="cls-1" d="M319.17,424.3V416H311V413.2h8.22V405H322v8.17h8.23V416H322v8.27Z"/><line class="cls-2" x1="320.79" x2="320.79" y2="1458.25"/><line class="cls-2" x1="640.53" y1="43.65" x2="640.53" y2="1431.6"/><line class="cls-2" x1="960.09" y1="16.65" x2="960.09" y2="1404.97"/><line class="cls-2" y1="1056.15" x2="1281" y2="1056.15"/><line class="cls-2" y1="414.66" x2="1281" y2="414.66"/></g></g></svg>