<svg xmlns="http://www.w3.org/2000/svg" viewBox="0 0 1281 1864.09"><defs><style>.cls-1{fill:none;stroke:#e9eddf;stroke-miterlimit:10;}.cls-2{fill:#e9eddf;}</style></defs><g id="Layer_2" data-name="Layer 2"><g id="highlights"><line class="cls-1" x1="321.79" y1="56.44" x2="321.79" y2="1864.09"/><line class="cls-1" x1="641.53" y1="28.01" x2="641.53" y2="1835.58"/><line class="cls-1" x1="961.09" x2="961.09" y2="1809.9"/><path class="cls-2" d="M320.38,353.48V345.2h-8.22v-2.82h8.22V334.2h2.83v8.18h8.22v2.82h-8.22v8.28Z"/><path class="cls-2" d="M959.67,353.48V345.2h-8.22v-2.82h8.22V334.2h2.83v8.18h8.22v2.82H962.5v8.28Z"/><path class="cls-2" d="M640.08,353.48V345.2h-8.22v-2.82h8.22V334.2h2.83v8.18h8.22v2.82h-8.22v8.28Z"/><path class="cls-2" d="M320.38,1472.94v-8.27h-8.22v-2.82h8.22v-8.18h2.83v8.18h8.22v2.82h-8.22v8.27Z"/><path class="cls-2" d="M959.67,1472.94v-8.27h-8.22v-2.82h8.22v-8.18h2.83v8.18h8.22v2.82H962.5v8.27Z"/><path class="cls-2" d="M640.08,1472.94v-8.27h-8.22v-2.82h8.22v-8.18h2.83v8.18h8.22v2.82h-8.22v8.27Z"/><line class="cls-1" x1="1281" y1="343.91" x2="2" y2="343.91"/><line class="cls-1" y1="1462.91" x2="1281" y2="1462.91"/></g></g></svg>