<svg xmlns="http://www.w3.org/2000/svg" viewBox="0 0 35.25 28.68"><defs><style>.cls-1{fill:#e9eddf;fill-rule:evenodd;}</style></defs><g id="Layer_2" data-name="Layer 2"><g id="company_intro" data-name="company intro"><path class="cls-1" d="M35.25,3.4v0a3.71,3.71,0,0,1-.64,1A12.84,12.84,0,0,1,33,6.12c-.35.32-.74.64-1.13.93a.39.39,0,0,0-.17.33v1a18.27,18.27,0,0,1-.23,2.77,20.55,20.55,0,0,1-.83,3.44,23.1,23.1,0,0,1-1.49,3.47A24.84,24.84,0,0,1,27,21.39a12.62,12.62,0,0,1-1.1,1.22,16.68,16.68,0,0,1-2.43,2.17,14.54,14.54,0,0,1-2,1.34,18.8,18.8,0,0,1-3.61,1.6,21.35,21.35,0,0,1-3.64.83c-.53.07-1.06.1-1.59.12H10.1A16.69,16.69,0,0,1,5.34,28a20,20,0,0,1-4-1.61,14.21,14.21,0,0,1-1.24-.72C0,25.54,0,25.48,0,25.39a2.57,2.57,0,0,1,.48,0,9.64,9.64,0,0,0,1.86,0c.54,0,1.07-.07,1.6-.15a15.65,15.65,0,0,0,3.75-1.14,17.27,17.27,0,0,0,2.66-1.58s0,0,0,0c-.27-.06-.52-.06-.79-.1a7.68,7.68,0,0,1-2.45-.85,7,7,0,0,1-1.82-1.48,6.55,6.55,0,0,1-1.23-1.86c-.09-.19-.17-.39-.25-.61s0-.3.22-.25a6.22,6.22,0,0,0,1,.1,7,7,0,0,0,1.68-.19A4.36,4.36,0,0,1,5.92,17,9.65,9.65,0,0,1,5,16.55,9.79,9.79,0,0,1,4.18,16a7.67,7.67,0,0,1-2-2.39,7.47,7.47,0,0,1-.8-2.53,7.94,7.94,0,0,1,0-.83c0-.18.11-.24.27-.14a7.55,7.55,0,0,0,2.48.77,1.53,1.53,0,0,0,.31,0,9.55,9.55,0,0,1-.89-.78A6.9,6.9,0,0,1,2.14,8.27,6.73,6.73,0,0,1,1.41,5.7a7.12,7.12,0,0,1,.34-3.11,9,9,0,0,1,.48-1.12c.13-.22.22-.22.39,0s.63.71.95,1a17.21,17.21,0,0,0,2,1.83A20.21,20.21,0,0,0,8.33,6.19a18.79,18.79,0,0,0,3.76,1.66,22.79,22.79,0,0,0,3.66.82c.43.05.87.09,1.31.12.15,0,.17,0,.15-.17a6.76,6.76,0,0,1-.1-.77,6.32,6.32,0,0,1,0-1.23,6.84,6.84,0,0,1,.21-1.28,7.28,7.28,0,0,1,1.4-2.72,6.94,6.94,0,0,1,2.49-2A6.26,6.26,0,0,1,22.9.07,5.16,5.16,0,0,1,23.69,0H25c.22,0,.43,0,.65.05a6,6,0,0,1,1.5.41,7.55,7.55,0,0,1,2,1.26,3.2,3.2,0,0,1,.36.37.33.33,0,0,0,.29.08,15.05,15.05,0,0,0,2.62-.83c.54-.25,1.08-.5,1.58-.77a.17.17,0,0,1,.2,0,.14.14,0,0,1,0,.18,5,5,0,0,1-.61,1.33,6.22,6.22,0,0,1-1.31,1.62,4.26,4.26,0,0,1-.95.74h0A12.23,12.23,0,0,0,33,4.08a10.52,10.52,0,0,0,2-.68C35.09,3.39,35.17,3.32,35.25,3.4Z"/><path class="cls-1" d="M10.49,28.67h1.18s0,0,0,0H10.49S10.48,28.67,10.49,28.67Z"/><path class="cls-1" d="M10.49,28.67h-.24s0,0,0,0Z"/><path class="cls-1" d="M11.67,28.68h.24s0,0,0,0Z"/><path class="cls-1" d="M24.06,0a.2.2,0,0,1-.15,0Z"/></g></g></svg>