<svg xmlns="http://www.w3.org/2000/svg" viewBox="0 0 338.98 338.67"><defs><style>.cls-1{fill:#e9eddf;}</style></defs><g id="Layer_2" data-name="Layer 2"><g id="work"><path class="cls-1" d="M8.22,19.27V11H0V8.18H8.22V0h2.83V8.18h8.22V11H11.05v8.27Z"/><path class="cls-1" d="M167.93,178.14v-8.28h-8.22V167h8.22v-8.18h2.82V167H179v2.82h-8.23v8.28Z"/><path class="cls-1" d="M8.22,178.14v-8.28H0V167H8.22v-8.18h2.83V167h8.22v2.82H11.05v8.28Z"/><path class="cls-1" d="M327.33,178.14v-8.28h-8.22V167h8.22v-8.18h2.82V167h8.23v2.82h-8.23v8.28Z"/><path class="cls-1" d="M8.22,338.67v-8.28H0v-2.82H8.22v-8.18h2.83v8.18h8.22v2.82H11.05v8.28Z"/><path class="cls-1" d="M327.93,19.27V11H319.7V8.18h8.23V0h2.82V8.18H339V11h-8.23v8.27Z"/><path class="cls-1" d="M327.93,338.67v-8.28H319.7v-2.82h8.23v-8.18h2.82v8.18H339v2.82h-8.23v8.28Z"/></g></g></svg>