<svg xmlns="http://www.w3.org/2000/svg" viewBox="0 0 1919.97 338.67"><defs><style>.cls-1{fill:#e9eddf;}.cls-2{fill:none;stroke:#e9eddf;stroke-miterlimit:10;}</style></defs><g id="Layer_2" data-name="Layer 2"><g id="logo"><path class="cls-1" d="M1118.12,19.27V11h-8.22V8.18h8.22V0H1121V8.18h8.22V11H1121v8.27Z"/><path class="cls-1" d="M1118.12,338.67v-8.28h-8.22v-2.82h8.22v-8.18H1121v8.18h8.22v2.82H1121v8.28Z"/><path class="cls-1" d="M1118.12,179V170.7h-8.22v-2.83h8.22V159.7H1121v8.17h8.22v2.83H1121V179Z"/><path class="cls-1" d="M1278.44,179V170.7h-8.23v-2.83h8.23V159.7h2.82v8.17h8.23v2.83h-8.23V179Z"/><path class="cls-1" d="M1278.64,338.67v-8.28h-8.23v-2.82h8.23v-8.18h2.82v8.18h8.23v2.82h-8.23v8.28Z"/><path class="cls-1" d="M959.05,19.27V11h-8.22V8.18h8.22V0h2.82V8.18h8.23V11h-8.23v8.27Z"/><path class="cls-1" d="M959.05,179v-8.27h-8.22v-2.83h8.22v-8.17h2.82v8.17h8.23v2.83h-8.23V179Z"/><path class="cls-1" d="M959.05,338.67v-8.28h-8.22v-2.82h8.22v-8.18h2.82v8.18h8.23v2.82h-8.23v8.28Z"/><line class="cls-2" x1="1599.97" y1="169.37" x2="960.1" y2="169.37"/><line class="cls-2" x1="1599.97" y1="328.81" x2="960.1" y2="328.81"/><rect class="cls-2" x="1119.53" y="169.37" width="160.32" height="160.32"/><rect class="cls-2" x="959.22" y="169.37" width="160.32" height="160.32"/><rect class="cls-2" x="959.22" y="9.64" width="160.32" height="160.32"/><line class="cls-2" x1="1919.97" y1="9.64" y2="9.64"/></g></g></svg>