<svg xmlns="http://www.w3.org/2000/svg" xmlns:xlink="http://www.w3.org/1999/xlink" viewBox="0 0 2063.87 2394.84"><defs><style>.cls-1,.cls-3,.cls-5{fill:none;}.cls-2{fill:#333532;}.cls-3{stroke:#e9eddf;}.cls-3,.cls-5{stroke-miterlimit:10;}.cls-4{clip-path:url(#clip-path);}.cls-5{stroke:#cfdcd5;}.cls-6{fill:#cfdcd5;}.cls-7{fill:#e9eddf;}</style><clipPath id="clip-path" transform="translate(143.87 180.54)"><rect class="cls-1" y="450" width="640" height="1213"/></clipPath></defs><g id="Layer_2" data-name="Layer 2"><g id="search_by" data-name="search by"><polygon class="cls-2" points="783.95 1843.54 2063.87 1843.54 2063.87 180.54 783.95 296.25 783.95 1843.54"/><line class="cls-3" x1="1104.37" y1="267.54" x2="1104.37" y2="461.54"/><line class="cls-3" x1="1743.37" y1="462.04" x2="784.87" y2="462.04"/><line class="cls-3" x1="1423.96" y1="238.04" x2="1423.96" y2="462.54"/><line class="cls-3" x1="1247.87" y1="824.85" x2="897.04" y2="824.85"/><g class="cls-4"><circle class="cls-5" cx="848.48" cy="1187.85" r="608.59"/><circle class="cls-5" cx="848.48" cy="1546.36" r="847.98"/><circle class="cls-5" cx="848.48" cy="848.48" r="847.98"/><circle class="cls-5" cx="848.48" cy="1187.85" r="608.59"/></g><polygon class="cls-6" points="463.87 1343.54 783.87 1343.54 783.87 296.53 463.87 324.54 463.87 1343.54"/><path class="cls-7" d="M639.17,1672.65v-8.28H631v-2.82h8.22v-8.18H642v8.18h8.23v2.82H642v8.28Z" transform="translate(143.87 180.54)"/><line class="cls-3" x1="2063.87" y1="1843.69" x2="143.9" y2="1843.69"/></g></g></svg>