<svg xmlns="http://www.w3.org/2000/svg" xmlns:xlink="http://www.w3.org/1999/xlink" viewBox="0 0 2438.51 2856.62"><defs><style>.cls-1,.cls-2,.cls-4{fill:none;}.cls-2{stroke:#e9eddf;}.cls-2,.cls-4{stroke-miterlimit:10;}.cls-3{clip-path:url(#clip-path);}.cls-4{stroke:#cfdcd5;}</style><clipPath id="clip-path" transform="translate(518.55 348.8)"><rect class="cls-1" x="910.35" y="351.56" width="100.22" height="1280.62" transform="translate(1952.32 31.42) rotate(90)"/></clipPath></defs><g id="Layer_2" data-name="Layer 2"><g id="workshops_list" data-name="workshops list"><line class="cls-2" x1="2438.51" y1="1390.85" x2="518.55" y2="1390.85"/><g class="cls-3"><circle class="cls-4" cx="1012.06" cy="1416.89" r="725.99"/><circle class="cls-4" cx="1012.06" cy="1844.56" r="1011.56"/><circle class="cls-4" cx="1012.06" cy="1012.06" r="1011.56"/></g><line class="cls-2" x1="1159.32" y1="1290.51" x2="1159.32" y2="1390.78"/><line class="cls-2" x1="1479.06" y1="1290.57" x2="1479.06" y2="1390.78"/><line class="cls-2" x1="1798.62" y1="1290.57" x2="1798.62" y2="1390.78"/><line class="cls-2" x1="2438.51" y1="1290.85" x2="518.55" y2="1290.85"/><line class="cls-2" x1="905.15" y1="349.3" x2="2051.07" y2="349.3"/><line class="cls-2" x1="905.15" y1="471.25" x2="2051.07" y2="471.25"/><line class="cls-2" x1="905.15" y1="593.2" x2="2051.07" y2="593.2"/><line class="cls-2" x1="905.15" y1="715.15" x2="2051.07" y2="715.15"/><line class="cls-2" x1="905.15" y1="837.1" x2="2051.07" y2="837.1"/><line class="cls-2" x1="905.15" y1="959.05" x2="2051.07" y2="959.05"/></g></g></svg>