<svg xmlns="http://www.w3.org/2000/svg" viewBox="0 0 658.57 178.41"><defs><style>.cls-1{fill:#e9eddf;}</style></defs><g id="Layer_2" data-name="Layer 2"><g id="page1"><path class="cls-1" d="M8.22,19.41V11.14H0V8.31H8.22V.14h2.83V8.31h8.22v2.83H11.05v8.27Z"/><path class="cls-1" d="M167.93,19.27V11h-8.22V8.18h8.22V0h2.82V8.18H179V11h-8.23v8.27Z"/><path class="cls-1" d="M167.93,178.27V170h-8.22v-2.82h8.22V159h2.82v8.18H179V170h-8.23v8.27Z"/><path class="cls-1" d="M487.93,19.27V11h-8.22V8.18h8.22V0h2.82V8.18H499V11h-8.23v8.27Z"/><path class="cls-1" d="M487.93,178.27V170h-8.22v-2.82h8.22V159h2.82v8.18H499V170h-8.23v8.27Z"/><path class="cls-1" d="M8.22,178.27V170H0v-2.82H8.22V159h2.83v8.18h8.22V170H11.05v8.27Z"/><path class="cls-1" d="M327.93,178.27V170H319.7v-2.82h8.23V159h2.82v8.18H339V170h-8.23v8.27Z"/><path class="cls-1" d="M647.51,19.41V11.14h-8.22V8.31h8.22V.14h2.83V8.31h8.23v2.83h-8.23v8.27Z"/><path class="cls-1" d="M647.51,178.41v-8.27h-8.22v-2.83h8.22v-8.17h2.83v8.17h8.23v2.83h-8.23v8.27Z"/><path class="cls-1" d="M327.93,19.41V11.14H319.7V8.31h8.23V.14h2.82V8.31H339v2.83h-8.23v8.27Z"/></g></g></svg>