<svg xmlns="http://www.w3.org/2000/svg" viewBox="0 0 1040.07 371.72"><defs><style>.cls-1{fill:#e9eddf;}</style></defs><g id="Layer_2" data-name="Layer 2"><g id="page1"><polygon class="cls-1" points="232.77 0 211.88 139.81 329.67 139.81 349.33 0 232.77 0"/><polygon class="cls-1" points="478.28 0 457.39 139.81 575.19 139.81 594.85 0 478.28 0"/><polygon class="cls-1" points="705.19 0 684.3 139.81 802.1 139.81 821.76 0 705.19 0"/><polygon class="cls-1" points="232.77 231.92 211.88 371.72 329.67 371.72 349.33 231.92 232.77 231.92"/><polygon class="cls-1" points="478.28 231.92 457.39 371.72 575.19 371.72 594.85 231.92 478.28 231.92"/><polygon class="cls-1" points="705.19 231.92 684.3 371.72 802.1 371.72 821.76 231.92 705.19 231.92"/><polygon class="cls-1" points="923.51 231.92 902.62 371.72 1020.41 371.72 1040.07 231.92 923.51 231.92"/><polygon class="cls-1" points="20.89 231.92 0 371.72 117.79 371.72 137.46 231.92 20.89 231.92"/></g></g></svg>