<svg xmlns="http://www.w3.org/2000/svg" viewBox="0 0 1919.97 163.04"><defs><style>.cls-1{isolation:isolate;}.cls-2{font-size:13px;font-family:Poppins-Bold, Poppins;font-weight:700;letter-spacing:0.03em;}.cls-2,.cls-4{fill:#e9eddf;}.cls-3{font-family:Poppins-Light, Poppins;font-weight:300;}.cls-4{fill-rule:evenodd;}.cls-5{mix-blend-mode:overlay;}.cls-6{fill:none;stroke:#e9eddf;stroke-miterlimit:10;}</style></defs><g class="cls-1"><g id="Layer_2" data-name="Layer 2"><g id="footer"><text class="cls-2" transform="translate(1314.1 140.11)">General Inquiries:<tspan class="cls-3"><tspan x="0" y="15.6">hello@memesyslab.com</tspan></tspan></text><text class="cls-2" transform="translate(640.78 88.59)">Memesys Culture Lab<tspan class="cls-3"><tspan x="0" y="15.6">Villa no. 2, Villa Bambolim, </tspan><tspan x="0" y="31.2">near Goa Dental College, </tspan><tspan x="0" y="46.8">Bambolim, Goa 403202</tspan></tspan></text><path class="cls-4" d="M1279.6,72V66.32h3.33a.61.61,0,0,0,0-.15c0-.79,0-1.55,0-2.34s0-1.44.06-2.17a7.65,7.65,0,0,1,.75-2.94,5.23,5.23,0,0,1,3.14-2.67,8.29,8.29,0,0,1,2-.4c.51,0,1-.08,1.55-.08h4.07c.17,0,.17,0,.17.17V61.1c0,.15,0,.15-.17.15h-3a2.91,2.91,0,0,0-.85.13,1.24,1.24,0,0,0-1,1.17c0,.48,0,1,0,1.46,0,.73,0,1.44,0,2.17a.59.59,0,0,0,0,.13h5.07l-.6,5.67h-4.34c-.15,0-.15,0-.15.14V88.36H1283V72.2c0-.25,0-.21-.21-.21h-3.14Z"/><path class="cls-4" d="M1460.1,64.9a8.84,8.84,0,0,0-1.58-4.7,8.39,8.39,0,0,0-6.43-3.29c-2.36-.16-4.73-.09-7.09-.11h-.89a57.57,57.57,0,0,0-6.3.2,7.8,7.8,0,0,0-7,6,19.52,19.52,0,0,0-.44,4.57c0,2.41,0,4.82,0,7.23a34.27,34.27,0,0,0,.21,4.41,7.88,7.88,0,0,0,6,7,22,22,0,0,0,4.58.4c2.41,0,4.84,0,7.25,0a33,33,0,0,0,4.34-.2,7.89,7.89,0,0,0,7.22-6.89,24.94,24.94,0,0,0,.26-4.42C1460.22,71.74,1460.33,68.33,1460.1,64.9Zm-2.58,8.76c0,1.58,0,3.16-.12,4.74a5.88,5.88,0,0,1-1.81,4.09,5.78,5.78,0,0,1-3.09,1.28A21.93,21.93,0,0,1,1449,84q-3.67,0-7.38,0a23.39,23.39,0,0,1-3.83-.24,5.18,5.18,0,0,1-4.52-4.79,34.72,34.72,0,0,1-.18-3.55c0-2.41,0-4.88,0-7.33a24.21,24.21,0,0,1,.24-3.88,5.22,5.22,0,0,1,4.77-4.48c1.18-.14,2.37-.14,3.54-.18s2.46,0,3.69,0c2.21,0,4.43,0,6.63.11a5.39,5.39,0,0,1,5.45,5.41C1457.58,67.9,1457.53,70.78,1457.52,73.66Z"/><path class="cls-4" d="M1453.28,65.56a1.8,1.8,0,1,1,1.78-1.82A1.78,1.78,0,0,1,1453.28,65.56Z"/><path class="cls-4" d="M1445.33,64.05a7.68,7.68,0,1,0,7.65,7.69A7.69,7.69,0,0,0,1445.33,64.05Zm-.07,12.66a5,5,0,1,1,5-5A5,5,0,0,1,1445.26,76.71Z"/><g class="cls-5"><path class="cls-4" d="M1460.1,64.9a8.84,8.84,0,0,0-1.58-4.7,8.39,8.39,0,0,0-6.43-3.29c-2.36-.16-4.73-.09-7.09-.11h-.89a57.57,57.57,0,0,0-6.3.2,7.8,7.8,0,0,0-7,6,19.52,19.52,0,0,0-.44,4.57c0,2.41,0,4.82,0,7.23a34.27,34.27,0,0,0,.21,4.41,7.88,7.88,0,0,0,6,7,22,22,0,0,0,4.58.4c2.41,0,4.84,0,7.25,0a33,33,0,0,0,4.34-.2,7.89,7.89,0,0,0,7.22-6.89,24.94,24.94,0,0,0,.26-4.42C1460.22,71.74,1460.33,68.33,1460.1,64.9Zm-2.58,8.76c0,1.58,0,3.16-.12,4.74a5.88,5.88,0,0,1-1.81,4.09,5.78,5.78,0,0,1-3.09,1.28A21.93,21.93,0,0,1,1449,84q-3.67,0-7.38,0a23.39,23.39,0,0,1-3.83-.24,5.18,5.18,0,0,1-4.52-4.79,34.72,34.72,0,0,1-.18-3.55c0-2.41,0-4.88,0-7.33a24.21,24.21,0,0,1,.24-3.88,5.22,5.22,0,0,1,4.77-4.48c1.18-.14,2.37-.14,3.54-.18s2.46,0,3.69,0c2.21,0,4.43,0,6.63.11a5.39,5.39,0,0,1,5.45,5.41C1457.58,67.9,1457.53,70.78,1457.52,73.66Z"/><path class="cls-4" d="M1453.28,65.56a1.8,1.8,0,1,1,1.78-1.82A1.78,1.78,0,0,1,1453.28,65.56Z"/></g><path class="cls-4" d="M1388.39,60.81v0a3.71,3.71,0,0,1-.64,1,12.84,12.84,0,0,1-1.59,1.71c-.35.32-.74.64-1.13.93a.39.39,0,0,0-.17.33v1a18.51,18.51,0,0,1-.23,2.78,19.75,19.75,0,0,1-.84,3.43,22.07,22.07,0,0,1-1.48,3.47,24.84,24.84,0,0,1-2.22,3.31A12.75,12.75,0,0,1,1379,80a16.68,16.68,0,0,1-2.43,2.17,14.54,14.54,0,0,1-2,1.34,18.8,18.8,0,0,1-3.61,1.6,21.35,21.35,0,0,1-3.64.83,14.36,14.36,0,0,1-1.59.12h-2.45a16.69,16.69,0,0,1-4.76-.72,19.79,19.79,0,0,1-4-1.61,14.21,14.21,0,0,1-1.24-.72c-.15-.08-.16-.14-.09-.23a2.57,2.57,0,0,1,.48,0,9.62,9.62,0,0,0,1.86,0c.54,0,1.07-.07,1.6-.15a15.65,15.65,0,0,0,3.75-1.14,16.51,16.51,0,0,0,2.66-1.58l0,0c-.27-.06-.53-.06-.79-.1a7.6,7.6,0,0,1-2.45-.85,7,7,0,0,1-1.82-1.48,6.55,6.55,0,0,1-1.23-1.86c-.09-.19-.17-.39-.25-.61s0-.3.22-.25a6.22,6.22,0,0,0,1,.1,7,7,0,0,0,1.68-.19,5,5,0,0,1-.93-.28c-.33-.12-.62-.3-.92-.44a9.79,9.79,0,0,1-.82-.55,7.32,7.32,0,0,1-2.83-4.92,7.94,7.94,0,0,1,0-.83c0-.18.11-.24.27-.14a7.55,7.55,0,0,0,2.48.77,1.53,1.53,0,0,0,.31,0,9.55,9.55,0,0,1-.89-.78,7.05,7.05,0,0,1-2.07-4.41,7.12,7.12,0,0,1,.34-3.11,9,9,0,0,1,.48-1.12c.13-.22.22-.22.39,0s.63.71,1,1a17.21,17.21,0,0,0,2,1.83,19.62,19.62,0,0,0,2.76,1.86,18.79,18.79,0,0,0,3.76,1.66,22.79,22.79,0,0,0,3.66.82c.43.05.87.09,1.31.12.15,0,.17,0,.15-.17a6.76,6.76,0,0,1-.1-.77,6.32,6.32,0,0,1,0-1.23,6.84,6.84,0,0,1,.21-1.28,7.35,7.35,0,0,1,1.4-2.72,6.94,6.94,0,0,1,2.49-2,6.26,6.26,0,0,1,1.69-.58c.26,0,.51,0,.79-.06h1.34c.22,0,.43,0,.65.05a6,6,0,0,1,1.5.41,7.55,7.55,0,0,1,2,1.26,2.52,2.52,0,0,1,.35.37.36.36,0,0,0,.3.08,15.05,15.05,0,0,0,2.62-.83c.54-.25,1.07-.5,1.58-.77.07,0,.13-.07.2,0s0,.12,0,.17a5,5,0,0,1-.61,1.33,6.22,6.22,0,0,1-1.31,1.62,4.26,4.26,0,0,1-1,.74h0a12.23,12.23,0,0,0,1.62-.33,11.25,11.25,0,0,0,2-.67C1388.23,60.79,1388.31,60.72,1388.39,60.81Z"/><path class="cls-4" d="M1363.62,86.07h1.19s0,0,0,0h-1.18A0,0,0,0,1,1363.62,86.07Z"/><path class="cls-4" d="M1363.62,86.07h-.23s0,0,0,0Z"/><path class="cls-4" d="M1364.81,86.08h.24s0,0,0,0Z"/><path class="cls-4" d="M1377.2,57.4a.14.14,0,0,1-.15,0Z"/><line class="cls-6" x1="1919.97" y1="0.5" y2="0.5"/></g></g></g></svg>