<svg xmlns="http://www.w3.org/2000/svg" xmlns:xlink="http://www.w3.org/1999/xlink" viewBox="0 0 1920.05 1458.7"><defs><style>.cls-1,.cls-2,.cls-5{fill:none;}.cls-2{stroke:#e9eddf;}.cls-2,.cls-5{stroke-miterlimit:10;}.cls-3{fill:#e9eddf;}.cls-4{clip-path:url(#clip-path);}.cls-5{stroke:#cfdcd5;}.cls-6{fill:#cfdcd5;}</style><clipPath id="clip-path"><polygon class="cls-1" points="640.23 1299.8 0.03 1354 0.03 43.06 639.43 43.06 640.23 1299.8"/></clipPath></defs><g id="Layer_2" data-name="Layer 2"><g id="work"><line class="cls-2" x1="1920.01" y1="1193.87" x2="0.04" y2="1353.5"/><path class="cls-3" d="M1278.7,359.65v-8.27h-8.23v-2.82h8.23v-8.18h2.82v8.18h8.23v2.82h-8.23v8.27Z"/><path class="cls-3" d="M959.11,359.65v-8.27h-8.23v-2.82h8.23v-8.18h2.82v8.18h8.23v2.82h-8.23v8.27Z"/><path class="cls-3" d="M639.41,680.23V672h-8.23v-2.83h8.23V661h2.82v8.17h8.23V672h-8.23v8.27Z"/><path class="cls-3" d="M799.11,839.09v-8.27h-8.22V828h8.22v-8.17h2.83V828h8.22v2.83h-8.22v8.27Z"/><path class="cls-3" d="M639.41,839.09v-8.27h-8.23V828h8.23v-8.17h2.82V828h8.23v2.83h-8.23v8.27Z"/><path class="cls-3" d="M958.51,839.09v-8.27h-8.22V828h8.22v-8.17h2.83V828h8.22v2.83h-8.22v8.27Z"/><path class="cls-3" d="M639.41,999.62v-8.27h-8.23v-2.83h8.23v-8.17h2.82v8.17h8.23v2.83h-8.23v8.27Z"/><path class="cls-3" d="M959.11,680.23V672h-8.23v-2.83h8.23V661h2.82v8.17h8.23V672h-8.23v8.27Z"/><path class="cls-3" d="M959.11,999.62v-8.27h-8.23v-2.83h8.23v-8.17h2.82v8.17h8.23v2.83h-8.23v8.27Z"/><g class="cls-4"><circle class="cls-5" cx="843.69" cy="1052.56" r="405.64"/><circle class="cls-5" cx="843.69" cy="826.37" r="565.19"/></g><line class="cls-2" x1="640.82" y1="55" x2="640.82" y2="1300"/><line class="cls-2" x1="960.56" y1="27" x2="960.56" y2="1274"/><line class="cls-2" x1="1280.11" x2="1280.11" y2="350.5"/><line class="cls-2" x1="800.5" y1="670.38" x2="800.5" y2="989.56"/><line class="cls-2" x1="640.66" y1="670.43" x2="959.77" y2="670.43"/><line class="cls-2" x1="640.64" y1="829.44" x2="959.75" y2="829.44"/><line class="cls-2" x1="640.64" y1="989.98" x2="959.75" y2="989.98"/><circle class="cls-6" cx="640.92" cy="287.23" r="162.19"/><rect class="cls-1" x="959.92" y="350.02" width="639.97" height="639.97"/></g></g></svg>