<svg xmlns="http://www.w3.org/2000/svg" xmlns:xlink="http://www.w3.org/1999/xlink" viewBox="0 0 3102.82 3288.17"><defs><style>.cls-1,.cls-3,.cls-4{fill:none;}.cls-2{clip-path:url(#clip-path);}.cls-3{stroke:#cfdcd5;}.cls-3,.cls-4{stroke-miterlimit:10;}.cls-4{stroke:#e9eddf;}.cls-5{clip-path:url(#clip-path-2);}.cls-6{fill:#333532;}.cls-7,.cls-8{fill:#e9eddf;}.cls-8{font-size:16px;font-family:Poppins-Medium, Poppins;font-weight:500;}.cls-9{fill:#cfdcd5;}</style><clipPath id="clip-path" transform="translate(519.02)"><rect class="cls-1" x="909.88" y="1131.92" width="100.22" height="1280.62" transform="translate(2732.21 812.24) rotate(90)"/></clipPath><clipPath id="clip-path-2" transform="translate(519.02)"><rect class="cls-1" x="0.78" width="640" height="1814"/></clipPath></defs><g id="Layer_2" data-name="Layer 2"><g id="search_by" data-name="search by"><g class="cls-2"><circle class="cls-3" cx="1012.06" cy="1848.44" r="725.99"/><circle class="cls-3" cx="1012.06" cy="2276.11" r="1011.56"/><circle class="cls-3" cx="1012.06" cy="1443.61" r="1011.56"/></g><line class="cls-4" x1="2438.98" y1="1821.28" x2="519.02" y2="1821.28"/><line class="cls-4" x1="1159.79" y1="1720.95" x2="1159.79" y2="1821.22"/><line class="cls-4" x1="1479.53" y1="1721" x2="1479.53" y2="1821.22"/><line class="cls-4" x1="1799.09" y1="1721" x2="1799.09" y2="1821.22"/><line class="cls-4" x1="2438.98" y1="1721.28" x2="519.02" y2="1721.28"/><g class="cls-5"><circle class="cls-3" cx="1914.97" cy="956.88" r="608.59"/><circle class="cls-3" cx="1604.27" cy="956.47" r="847.98"/><circle class="cls-3" cx="2254.34" cy="956.88" r="847.98"/></g><line class="cls-4" x1="1159.79" x2="1159.79" y2="420.5"/><polygon class="cls-6" points="1159.08 1721 2439 1721 2439 305 1159.08 420.72 1159.08 1721"/><line class="cls-4" x1="1257" y1="678.77" x2="1925.5" y2="678.77"/><rect class="cls-7" x="1258.55" y="755.68" width="279.41" height="261.67"/><rect class="cls-7" x="1646.55" y="755.68" width="279.41" height="261.67"/><rect class="cls-7" x="1258.55" y="1156.68" width="279.41" height="261.67"/><rect class="cls-7" x="1646.55" y="1156.68" width="279.41" height="261.67"/><text class="cls-8" transform="translate(1555.43 1595.62)"><tspan xml:space="preserve">1  2  3  4  5</tspan></text><polygon class="cls-7" points="1511 1599.65 1502 1590.65 1511 1581.65 1511 1599.65"/><polygon class="cls-7" points="1678 1599.65 1687 1590.65 1678 1581.65 1678 1599.65"/><polygon class="cls-9" points="839 1468 1159 1468 1159 420.99 839 449 839 1468"/></g></g></svg>