<svg xmlns="http://www.w3.org/2000/svg" xmlns:xlink="http://www.w3.org/1999/xlink" viewBox="0 0 2118.6 2856.62"><defs><style>.cls-1,.cls-5,.cls-7,.cls-9{fill:none;}.cls-2{fill:#195866;}.cls-3{fill:#cebe9c;}.cls-4{clip-path:url(#clip-path);}.cls-5{stroke:#cfdcd5;}.cls-5,.cls-7,.cls-9{stroke-miterlimit:10;}.cls-6{fill:#e9eddf;}.cls-7,.cls-9{stroke:#e9eddf;}.cls-8{clip-path:url(#clip-path-2);}.cls-9{font-size:266.61px;font-family:Poppins-Black, Poppins;font-weight:800;letter-spacing:0.03em;}</style><clipPath id="clip-path" transform="translate(838.49 18.9)"><rect class="cls-1" x="585.23" y="676.3" width="110.55" height="1280.62" transform="translate(1957.12 676.1) rotate(90)"/></clipPath><clipPath id="clip-path-2" transform="translate(838.49 18.9)"><polygon class="cls-1" points="1279.71 633.3 0 746.61 0 106.64 1279.71 0 1279.71 633.3"/></clipPath></defs><g id="Layer_2" data-name="Layer 2"><g id="say_hello" data-name="say hello"><polygon class="cls-2" points="1798.53 1281.69 838.53 1281.69 838.53 764.57 1798.53 679.57 1798.53 1281.69"/><polygon class="cls-3" points="2118.6 1281.69 1798.53 1281.69 1798.53 679.57 2118.6 651.57 2118.6 1281.69"/><g class="cls-4"><circle class="cls-5" cx="1012.06" cy="1416.89" r="725.99"/><circle class="cls-5" cx="1012.06" cy="1844.56" r="1011.56"/><circle class="cls-5" cx="1012.06" cy="1012.06" r="1011.56"/></g><path class="cls-6" d="M319.42,1272.43v-8.28H311.2v-2.82h8.22v-8.18h2.83v8.18h8.22v2.82h-8.22v8.28Z" transform="translate(838.49 18.9)"/><path class="cls-6" d="M958.71,1272.43v-8.28h-8.22v-2.82h8.22v-8.18h2.83v8.18h8.22v2.82h-8.22v8.28Z" transform="translate(838.49 18.9)"/><path class="cls-6" d="M639.12,1272.43v-8.28H630.9v-2.82h8.22v-8.18H642v8.18h8.22v2.82H642v8.28Z" transform="translate(838.49 18.9)"/><line class="cls-7" x1="1159.32" y1="1290.51" x2="1159.32" y2="1390.78"/><line class="cls-7" x1="1479.06" y1="1288.06" x2="1479.06" y2="1390.78"/><line class="cls-7" x1="1798.62" y1="1285.64" x2="1798.62" y2="1390.78"/><g class="cls-8"><text class="cls-9" transform="translate(816.72 524.34)">say</text><text class="cls-9" transform="translate(1295.83 699.49)">hello</text></g><line class="cls-7" x1="839.53" y1="1281.69" x2="2118.53" y2="1281.69"/></g></g></svg>