<svg xmlns="http://www.w3.org/2000/svg" xmlns:xlink="http://www.w3.org/1999/xlink" viewBox="0 0 2480.5 1704.81"><defs><style>.cls-1,.cls-3,.cls-6{fill:none;}.cls-2{clip-path:url(#clip-path);}.cls-3{stroke:#cfdcd5;}.cls-3,.cls-6{stroke-miterlimit:10;}.cls-4{fill:#689775;}.cls-5{fill:#333532;}.cls-6{stroke:#e9eddf;}.cls-7{fill:#141414;}.cls-8{fill:#e9eddf;}.cls-9{fill:#cfdcd5;}</style><clipPath id="clip-path" transform="translate(560.45 131.3)"><polygon class="cls-1" points="320.18 529.92 320.18 210.91 1600.81 105.91 1600.81 529.92 320.18 529.92"/></clipPath></defs><g id="Layer_2" data-name="Layer 2"><g id="typography_river" data-name="typography river"><g class="cls-2"><circle class="cls-3" cx="1062.43" cy="746.87" r="535.67"/><circle class="cls-3" cx="746.87" cy="746.87" r="746.37"/><circle class="cls-3" cx="1361.13" cy="746.87" r="746.37"/></g><rect class="cls-4" x="880.64" y="661.22" width="320.42" height="641.14"/><rect class="cls-5" x="1520.97" y="661.22" width="319.39" height="641.14"/><line class="cls-6" x1="1557.93" y1="980.1" x2="1804.35" y2="980.1"/><rect class="cls-7" x="1840.97" y="661.22" width="319.39" height="641.14"/><line class="cls-6" x1="1850.2" y1="980.1" x2="2160.35" y2="980.1"/><path class="cls-8" d="M1278.7,858.44v-8.28h-8.23v-2.82h8.23v-8.18h2.82v8.18h8.23v2.82h-8.23v8.28Z" transform="translate(560.45 131.3)"/><path class="cls-8" d="M959.11,858.44v-8.28h-8.23v-2.82h8.23v-8.18h2.82v8.18h8.23v2.82h-8.23v8.28Z" transform="translate(560.45 131.3)"/><path class="cls-8" d="M1278.7,1180.7v-8.27h-8.23v-2.83h8.23v-8.17h2.82v8.17h8.23v2.83h-8.23v8.27Z" transform="translate(560.45 131.3)"/><path class="cls-8" d="M959.11,1180.7v-8.27h-8.23v-2.83h8.23v-8.17h2.82v8.17h8.23v2.83h-8.23v8.27Z" transform="translate(560.45 131.3)"/><path class="cls-8" d="M959.27,1180.7v-8.27H951v-2.83h8.23v-8.17h2.82v8.17h8.23v2.83h-8.23v8.27Z" transform="translate(560.45 131.3)"/><path class="cls-8" d="M639.68,1180.7v-8.27h-8.22v-2.83h8.22v-8.17h2.82v8.17h8.23v2.83H642.5v8.27Z" transform="translate(560.45 131.3)"/><path class="cls-8" d="M1278.7,539.56v-8.27h-8.23v-2.83h8.23v-8.17h2.82v8.17h8.23v2.83h-8.23v8.27Z" transform="translate(560.45 131.3)"/><path class="cls-8" d="M959.11,539.56v-8.27h-8.23v-2.83h8.23v-8.17h2.82v8.17h8.23v2.83h-8.23v8.27Z" transform="translate(560.45 131.3)"/><path class="cls-8" d="M639.19,539.56v-8.27H631v-2.83h8.22v-8.17H642v8.17h8.23v2.83H642v8.27Z" transform="translate(560.45 131.3)"/><line class="cls-6" x1="1201.27" y1="246.56" x2="1201.27" y2="1704.81"/><line class="cls-6" x1="1521.01" y1="290.21" x2="1521.01" y2="1678.16"/><line class="cls-6" x1="1840.57" y1="263.21" x2="1840.57" y2="1651.53"/><line class="cls-6" x1="880.48" y1="1302.71" x2="2161.48" y2="1302.71"/><line class="cls-6" x1="880.48" y1="661.22" x2="2161.48" y2="661.22"/><circle class="cls-9" cx="1266.54" cy="293.49" r="162.19"/><line class="cls-6" x1="2480.46" y1="210.08" x2="560.5" y2="369.71"/></g></g></svg>