<svg xmlns="http://www.w3.org/2000/svg" xmlns:xlink="http://www.w3.org/1999/xlink" viewBox="0 0 2682.86 4822.09"><defs><style>.cls-1,.cls-3,.cls-5{fill:none;}.cls-2{clip-path:url(#clip-path);}.cls-3{stroke:#cfdcd5;}.cls-3,.cls-5{stroke-miterlimit:10;}.cls-4{clip-path:url(#clip-path-2);}.cls-5{stroke:#e9eddf;}.cls-6{fill:#e9eddf;}.cls-7{clip-path:url(#clip-path-3);}</style><clipPath id="clip-path" transform="translate(914.36 824.56)"><polygon class="cls-1" points="1.16 1328.05 1.16 1061.85 1281.78 954.85 1281.78 1328.05 1.16 1328.05"/></clipPath><clipPath id="clip-path-2" transform="translate(914.36 824.56)"><polygon class="cls-1" points="1.16 2873.92 1.16 2446.75 1281.78 2446.75 1281.78 2764.92 1.16 2873.92"/></clipPath><clipPath id="clip-path-3" transform="translate(914.36 824.56)"><polygon class="cls-1" points="1.16 429.85 1.16 0 1281.78 0 1281.78 322.85 1.16 429.85"/></clipPath></defs><g id="Layer_2" data-name="Layer 2"><g id="in_the_news" data-name="in the news"><g class="cls-2"><circle class="cls-3" cx="1245.79" cy="2287.79" r="586.04"/><circle class="cls-3" cx="1245.79" cy="2633.01" r="816.56"/><circle class="cls-3" cx="1245.79" cy="1961" r="816.56"/></g><g class="cls-4"><circle class="cls-3" cx="1865.8" cy="3659.81" r="586.04"/><circle class="cls-3" cx="1865.8" cy="4005.04" r="816.56"/><circle class="cls-3" cx="1865.8" cy="3333.02" r="816.56"/></g><line class="cls-5" x1="1236.15" y1="1864.45" x2="1236.15" y2="3672.1"/><line class="cls-5" x1="1555.89" y1="1836.02" x2="1555.89" y2="3643.59"/><line class="cls-5" x1="1875.45" y1="1808.01" x2="1875.45" y2="3617.91"/><path class="cls-6" d="M320.38,1336.92v-8.27h-8.22v-2.82h8.22v-8.18h2.83v8.18h8.22v2.82h-8.22v8.27Z" transform="translate(914.36 824.56)"/><path class="cls-6" d="M959.67,1336.92v-8.27h-8.22v-2.82h8.22v-8.18h2.83v8.18h8.22v2.82H962.5v8.27Z" transform="translate(914.36 824.56)"/><path class="cls-6" d="M640.08,1336.92v-8.27h-8.22v-2.82h8.22v-8.18h2.83v8.18h8.22v2.82h-8.22v8.27Z" transform="translate(914.36 824.56)"/><path class="cls-6" d="M320.38,2456.39v-8.27h-8.22v-2.83h8.22v-8.17h2.83v8.17h8.22v2.83h-8.22v8.27Z" transform="translate(914.36 824.56)"/><path class="cls-6" d="M959.67,2456.39v-8.27h-8.22v-2.83h8.22v-8.17h2.83v8.17h8.22v2.83H962.5v8.27Z" transform="translate(914.36 824.56)"/><path class="cls-6" d="M640.08,2456.39v-8.27h-8.22v-2.83h8.22v-8.17h2.83v8.17h8.22v2.83h-8.22v8.27Z" transform="translate(914.36 824.56)"/><line class="cls-5" x1="2195.36" y1="2151.91" x2="916.36" y2="2151.91"/><line class="cls-5" x1="914.36" y1="3270.91" x2="2195.36" y2="3270.91"/><polygon class="cls-5" points="2195.23 1779.72 915.52 1893.03 915.52 1254.11 2195.23 1147.46 2195.23 1779.72"/><g class="cls-7"><circle class="cls-3" cx="1062.43" cy="746.87" r="535.67"/><circle class="cls-3" cx="746.87" cy="746.87" r="746.37"/><circle class="cls-3" cx="1361.13" cy="746.87" r="746.37"/></g></g></g></svg>