<svg xmlns="http://www.w3.org/2000/svg" xmlns:xlink="http://www.w3.org/1999/xlink" viewBox="0 0 2063.87 2920.3"><defs><style>.cls-1,.cls-3,.cls-4{fill:none;}.cls-2{clip-path:url(#clip-path);}.cls-3{stroke:#cfdcd5;}.cls-3,.cls-4{stroke-miterlimit:10;}.cls-4{stroke:#e9eddf;}.cls-5{fill:#333532;}.cls-6,.cls-7{fill:#e9eddf;}.cls-7{font-size:16px;font-family:Poppins-Medium, Poppins;font-weight:500;}.cls-8{fill:#cfdcd5;}</style><clipPath id="clip-path" transform="translate(143.87)"><rect class="cls-1" y="227" width="640" height="2142"/></clipPath></defs><g id="Layer_2" data-name="Layer 2"><g id="search_by" data-name="search by"><g class="cls-2"><circle class="cls-3" cx="848.48" cy="1713.31" r="608.59"/><circle class="cls-3" cx="848.48" cy="2071.82" r="847.98"/><circle class="cls-3" cx="848.48" cy="1373.94" r="847.98"/></g><line class="cls-4" x1="784.66" x2="784.66" y2="966.5"/><line class="cls-4" x1="1423.96" y1="0.08" x2="1423.96" y2="909"/><line class="cls-4" x1="883.33" y1="659.77" x2="1326.37" y2="659.77"/><polygon class="cls-5" points="783.95 2430 2063.87 2430 2063.87 851 783.95 966.72 783.95 2430"/><rect class="cls-6" x="883.42" y="1072.68" width="279.41" height="261.67"/><rect class="cls-6" x="1271.42" y="1072.68" width="279.41" height="261.67"/><rect class="cls-6" x="883.42" y="1473.68" width="279.41" height="261.67"/><rect class="cls-6" x="1271.42" y="1473.68" width="279.41" height="261.67"/><rect class="cls-6" x="883.42" y="1881.68" width="279.41" height="261.67"/><rect class="cls-6" x="1271.42" y="1881.68" width="279.41" height="261.67"/><text class="cls-7" transform="translate(1180.3 2322.62)"><tspan xml:space="preserve">1  2  3  4  5</tspan></text><polygon class="cls-6" points="1135.87 2326.65 1126.87 2317.65 1135.87 2308.65 1135.87 2326.65"/><polygon class="cls-6" points="1302.87 2326.65 1311.87 2317.65 1302.87 2308.65 1302.87 2326.65"/><polygon class="cls-8" points="463.87 2014 783.87 2014 783.87 966.99 463.87 995 463.87 2014"/></g></g></svg>