<svg xmlns="http://www.w3.org/2000/svg" xmlns:xlink="http://www.w3.org/1999/xlink" viewBox="0 0 2439.51 2856.62"><defs><style>.cls-1,.cls-10,.cls-12,.cls-2,.cls-4{fill:none;}.cls-1,.cls-10,.cls-4{stroke:#e9eddf;}.cls-1,.cls-10,.cls-12,.cls-4{stroke-miterlimit:10;}.cls-1{stroke-width:2px;}.cls-3{isolation:isolate;}.cls-4{stroke-width:8px;}.cls-5{font-size:13px;font-family:Poppins-Bold, Poppins;font-weight:700;letter-spacing:0.03em;}.cls-13,.cls-5,.cls-8{fill:#e9eddf;}.cls-6{font-family:Poppins-Light, Poppins;font-weight:300;}.cls-7{clip-path:url(#clip-path);}.cls-8{fill-rule:evenodd;}.cls-9{mix-blend-mode:overlay;}.cls-11{clip-path:url(#clip-path-2);}.cls-12{stroke:#cfdcd5;}</style><clipPath id="clip-path" transform="translate(519.55 1270.06)"><rect class="cls-1" x="1279.6" y="237.76" width="0.41" height="46.12"/></clipPath><clipPath id="clip-path-2" transform="translate(519.55 1270.06)"><rect class="cls-2" x="904.18" y="-574.86" width="110.55" height="1280.62" transform="translate(1024.9 -894) rotate(90)"/></clipPath></defs><g class="cls-3"><g id="Layer_2" data-name="Layer 2"><g id="page1"><g id="footer"><polygon class="cls-4" points="1016.85 1538.69 966.94 1453.65 917.72 1539.57 1016.85 1538.69"/><polygon class="cls-4" points="1064.41 1538.69 1014.5 1453.29 965.28 1538.84 1064.41 1538.69"/><text class="cls-5" transform="translate(1833.65 1528.46)">General Inquiries:<tspan class="cls-6"><tspan x="0" y="15.6">hello@memesyslab.com</tspan></tspan></text><text class="cls-5" transform="translate(1160.32 1476.94)">Memesys Culture Lab<tspan class="cls-6"><tspan x="0" y="15.6">Villa no. 2, Villa Bambolim, </tspan><tspan x="0" y="31.2">near Goa Dental College, </tspan><tspan x="0" y="46.8">Bambolim, Goa 403202</tspan></tspan></text><g class="cls-7"><line class="cls-1" x1="1799.36" y1="1507.82" x2="1799.36" y2="1533.94"/></g><rect class="cls-1" x="1799.15" y="1507.82" width="0.41" height="46.12"/><path class="cls-8" d="M1279.6,190.28v-5.67h3.33a.68.68,0,0,0,0-.15c0-.79,0-1.55,0-2.34s0-1.44.06-2.18a7.65,7.65,0,0,1,.75-2.93,5.23,5.23,0,0,1,3.14-2.67,8.79,8.79,0,0,1,2-.41c.51,0,1-.07,1.55-.07h4.07c.17,0,.17,0,.17.17v5.36c0,.15,0,.15-.17.15h-3a2.91,2.91,0,0,0-.85.13,1.24,1.24,0,0,0-1,1.17c0,.47,0,1,0,1.46,0,.73,0,1.44,0,2.17a.69.69,0,0,0,0,.13h5.07l-.6,5.67h-4.34c-.15,0-.15,0-.15.14v16.23H1283V190.49c0-.25,0-.21-.21-.21h-3.14Z" transform="translate(519.55 1270.06)"/><path class="cls-8" d="M1460.1,183.19a8.84,8.84,0,0,0-1.58-4.7,8.39,8.39,0,0,0-6.43-3.29c-2.36-.16-4.73-.09-7.09-.12h-.89a57.58,57.58,0,0,0-6.3.21,7.8,7.8,0,0,0-7,6,19.52,19.52,0,0,0-.44,4.57c0,2.41,0,4.82,0,7.23a34.36,34.36,0,0,0,.21,4.41,7.88,7.88,0,0,0,6,7,22,22,0,0,0,4.58.4c2.41,0,4.84,0,7.25,0a33,33,0,0,0,4.34-.2,7.89,7.89,0,0,0,7.22-6.89,24.94,24.94,0,0,0,.26-4.42C1460.22,190,1460.33,186.62,1460.1,183.19Zm-2.58,8.76c0,1.58,0,3.16-.12,4.74a5.88,5.88,0,0,1-1.81,4.09,5.78,5.78,0,0,1-3.09,1.28,21.93,21.93,0,0,1-3.53.19q-3.67,0-7.38,0a23.39,23.39,0,0,1-3.83-.24,5.18,5.18,0,0,1-4.52-4.79,34.72,34.72,0,0,1-.18-3.55c0-2.41,0-4.88,0-7.33a24.21,24.21,0,0,1,.24-3.88,5.22,5.22,0,0,1,4.77-4.48c1.18-.14,2.37-.14,3.54-.18s2.46,0,3.69,0c2.21,0,4.43-.05,6.63.11a5.39,5.39,0,0,1,5.45,5.4C1457.58,186.18,1457.53,189.07,1457.52,192Z" transform="translate(519.55 1270.06)"/><path class="cls-8" d="M1453.28,183.85a1.8,1.8,0,1,1,1.78-1.83A1.78,1.78,0,0,1,1453.28,183.85Z" transform="translate(519.55 1270.06)"/><path class="cls-8" d="M1445.33,182.34A7.68,7.68,0,1,0,1453,190,7.69,7.69,0,0,0,1445.33,182.34Zm-.07,12.66a5,5,0,1,1,5-5A5,5,0,0,1,1445.26,195Z" transform="translate(519.55 1270.06)"/><g class="cls-9"><path class="cls-8" d="M1460.1,183.19a8.84,8.84,0,0,0-1.58-4.7,8.39,8.39,0,0,0-6.43-3.29c-2.36-.16-4.73-.09-7.09-.12h-.89a57.58,57.58,0,0,0-6.3.21,7.8,7.8,0,0,0-7,6,19.52,19.52,0,0,0-.44,4.57c0,2.41,0,4.82,0,7.23a34.36,34.36,0,0,0,.21,4.41,7.88,7.88,0,0,0,6,7,22,22,0,0,0,4.58.4c2.41,0,4.84,0,7.25,0a33,33,0,0,0,4.34-.2,7.89,7.89,0,0,0,7.22-6.89,24.94,24.94,0,0,0,.26-4.42C1460.22,190,1460.33,186.62,1460.1,183.19Zm-2.58,8.76c0,1.58,0,3.16-.12,4.74a5.88,5.88,0,0,1-1.81,4.09,5.78,5.78,0,0,1-3.09,1.28,21.93,21.93,0,0,1-3.53.19q-3.67,0-7.38,0a23.39,23.39,0,0,1-3.83-.24,5.18,5.18,0,0,1-4.52-4.79,34.72,34.72,0,0,1-.18-3.55c0-2.41,0-4.88,0-7.33a24.21,24.21,0,0,1,.24-3.88,5.22,5.22,0,0,1,4.77-4.48c1.18-.14,2.37-.14,3.54-.18s2.46,0,3.69,0c2.21,0,4.43-.05,6.63.11a5.39,5.39,0,0,1,5.45,5.4C1457.58,186.18,1457.53,189.07,1457.52,192Z" transform="translate(519.55 1270.06)"/><path class="cls-8" d="M1453.28,183.85a1.8,1.8,0,1,1,1.78-1.83A1.78,1.78,0,0,1,1453.28,183.85Z" transform="translate(519.55 1270.06)"/></g><path class="cls-8" d="M1388.39,179.09v0a3.71,3.71,0,0,1-.64,1,12.84,12.84,0,0,1-1.59,1.71c-.35.32-.74.64-1.13.93a.38.38,0,0,0-.17.33v1a18.27,18.27,0,0,1-.23,2.77,19.64,19.64,0,0,1-.84,3.44,22.07,22.07,0,0,1-1.48,3.47,24.84,24.84,0,0,1-2.22,3.31,14.08,14.08,0,0,1-1.1,1.22,16.68,16.68,0,0,1-2.43,2.17,14.54,14.54,0,0,1-2,1.34,18.8,18.8,0,0,1-3.61,1.6,21.35,21.35,0,0,1-3.64.83c-.53.07-1.07.1-1.59.12h-2.45a16.69,16.69,0,0,1-4.76-.72,19.79,19.79,0,0,1-4-1.61,14.21,14.21,0,0,1-1.24-.72c-.15-.08-.16-.14-.09-.23a2.57,2.57,0,0,1,.48,0,9.62,9.62,0,0,0,1.86,0c.54,0,1.07-.07,1.6-.15a15.65,15.65,0,0,0,3.75-1.14,17.27,17.27,0,0,0,2.66-1.58s0,0,0-.05c-.27-.06-.53-.06-.79-.1a7.6,7.6,0,0,1-2.45-.85,7,7,0,0,1-1.82-1.48,6.69,6.69,0,0,1-1.23-1.86c-.09-.19-.17-.39-.25-.61s0-.3.22-.25a6.22,6.22,0,0,0,1,.1A7,7,0,0,0,1360,193a4.36,4.36,0,0,1-.93-.29,8.63,8.63,0,0,1-.92-.43,9.79,9.79,0,0,1-.82-.55,7.32,7.32,0,0,1-2.83-4.92,7.94,7.94,0,0,1,0-.83c0-.18.11-.24.27-.14a7.55,7.55,0,0,0,2.48.77,1.53,1.53,0,0,0,.31,0,9.55,9.55,0,0,1-.89-.78,7.05,7.05,0,0,1-2.07-4.41,7.12,7.12,0,0,1,.34-3.11,9,9,0,0,1,.48-1.12c.13-.22.22-.22.39,0s.63.71,1,1a17.21,17.21,0,0,0,2,1.83,19.62,19.62,0,0,0,2.76,1.86,18.79,18.79,0,0,0,3.76,1.66,22.79,22.79,0,0,0,3.66.82c.43,0,.87.09,1.31.12.15,0,.17,0,.15-.17a6.76,6.76,0,0,1-.1-.77,6.32,6.32,0,0,1,0-1.23,6.84,6.84,0,0,1,.21-1.28,7.28,7.28,0,0,1,1.4-2.72,6.94,6.94,0,0,1,2.49-2,6.26,6.26,0,0,1,1.69-.58,5.06,5.06,0,0,1,.79-.06h1.34c.22,0,.43,0,.65.05a6,6,0,0,1,1.5.41,7.55,7.55,0,0,1,2,1.26,2.52,2.52,0,0,1,.35.37.36.36,0,0,0,.3.08,15.05,15.05,0,0,0,2.62-.83c.54-.25,1.07-.5,1.58-.77a.17.17,0,0,1,.2,0,.14.14,0,0,1,0,.18,5,5,0,0,1-.61,1.33,6.22,6.22,0,0,1-1.31,1.62,4.26,4.26,0,0,1-1,.74h0a12.23,12.23,0,0,0,1.62-.33,10.52,10.52,0,0,0,2-.68C1388.23,179.08,1388.31,179,1388.39,179.09Z" transform="translate(519.55 1270.06)"/><path class="cls-8" d="M1363.62,204.36h1.19s0,0,0,0h-1.19Z" transform="translate(519.55 1270.06)"/><path class="cls-8" d="M1363.62,204.36h-.23s0,0,0,0Z" transform="translate(519.55 1270.06)"/><path class="cls-8" d="M1364.81,204.37h.24s0,0,0,0Z" transform="translate(519.55 1270.06)"/><path class="cls-8" d="M1377.2,175.69a.19.19,0,0,1-.15,0Z" transform="translate(519.55 1270.06)"/><line class="cls-10" x1="2439.51" y1="1388.85" x2="519.55" y2="1388.85"/></g><g class="cls-11"><circle class="cls-12" cx="1012.06" cy="1416.89" r="725.99"/><circle class="cls-12" cx="1012.06" cy="1844.56" r="1011.56"/><circle class="cls-12" cx="1012.06" cy="1012.06" r="1011.56"/></g><path class="cls-13" d="M639.36,19.27V11h-8.22V8.18h8.22V0h2.83V8.18h8.22V11h-8.22v8.27Z" transform="translate(519.55 1270.06)"/><path class="cls-13" d="M1278.65,19.27V11h-8.22V8.18h8.22V0h2.83V8.18h8.22V11h-8.22v8.27Z" transform="translate(519.55 1270.06)"/><path class="cls-13" d="M959.07,19.27V11h-8.23V8.18h8.23V0h2.82V8.18h8.23V11h-8.23v8.27Z" transform="translate(519.55 1270.06)"/><line class="cls-10" x1="1160.32" y1="1288.51" x2="1160.32" y2="1388.78"/><line class="cls-10" x1="1480.06" y1="1286.06" x2="1480.06" y2="1388.78"/><line class="cls-10" x1="1799.62" y1="1283.64" x2="1799.62" y2="1388.78"/></g></g></g></svg>