<svg xmlns="http://www.w3.org/2000/svg" xmlns:xlink="http://www.w3.org/1999/xlink" viewBox="0 0 3320.77 3896.54"><defs><style>.cls-1,.cls-3{fill:none;}.cls-2{clip-path:url(#clip-path);}.cls-3{stroke:#cfdcd5;stroke-miterlimit:10;}.cls-4{clip-path:url(#clip-path-2);}</style><clipPath id="clip-path" transform="translate(883.72 123.45)"><rect class="cls-1" y="2712.18" width="639" height="978"/></clipPath><clipPath id="clip-path-2" transform="translate(883.72 123.45)"><rect class="cls-1" x="590" y="652.18" width="634" height="1487"/></clipPath></defs><g id="Layer_2" data-name="Layer 2"><g id="page1"><g class="cls-2"><circle class="cls-3" cx="848.48" cy="2689.55" r="608.59"/><circle class="cls-3" cx="848.48" cy="3048.06" r="847.98"/><circle class="cls-3" cx="848.48" cy="2350.18" r="847.98"/></g><g class="cls-4"><circle class="cls-3" cx="2472.29" cy="1187.85" r="608.59"/><circle class="cls-3" cx="2472.29" cy="1546.36" r="847.98"/><circle class="cls-3" cx="2472.29" cy="848.48" r="847.98"/></g><polygon class="cls-1" points="2482.59 755.7 1202.88 869.01 1202.88 230.09 2482.59 123.45 2482.59 755.7"/><polygon class="cls-1" points="1807.72 970.69 1202.88 1021.09 1202.88 1660.01 1807.72 1606.46 1807.72 970.69"/><polygon class="cls-1" points="1869.72 1222.52 1869.72 2058.97 2482.59 2004.7 2482.59 1171.45 1869.72 1222.52"/><polygon class="cls-1" points="1516.13 1696.92 1516.13 2094.71 1807.59 2068.9 1807.59 1672.63 1516.13 1696.92"/><polygon class="cls-1" points="2482.59 2793.7 1202.88 2907.01 1202.88 2268.09 2482.59 2161.45 2482.59 2793.7"/></g></g></svg>