<svg xmlns="http://www.w3.org/2000/svg" viewBox="0 0 1919 767"><defs><style>.cls-1{fill:none;stroke:#e9eddf;stroke-miterlimit:10;}.cls-2{fill:#e9eddf;}</style></defs><g id="Layer_2" data-name="Layer 2"><g id="page1"><line class="cls-1" y1="766.5" x2="1919" y2="766.5"/><line class="cls-1" y1="0.5" x2="1919" y2="0.5"/><polygon class="cls-2" points="671.73 205.28 650.84 345.08 768.63 345.08 788.29 205.28 671.73 205.28"/><polygon class="cls-2" points="917.25 205.28 896.36 345.08 1014.15 345.08 1033.81 205.28 917.25 205.28"/><polygon class="cls-2" points="1144.15 205.28 1123.26 345.08 1241.06 345.08 1260.72 205.28 1144.15 205.28"/><polygon class="cls-2" points="671.73 437.19 650.84 577 768.63 577 788.29 437.19 671.73 437.19"/><polygon class="cls-2" points="917.25 437.19 896.36 577 1014.15 577 1033.81 437.19 917.25 437.19"/><polygon class="cls-2" points="1144.15 437.19 1123.26 577 1241.06 577 1260.72 437.19 1144.15 437.19"/><polygon class="cls-2" points="1362.47 437.19 1341.58 577 1459.38 577 1479.04 437.19 1362.47 437.19"/><polygon class="cls-2" points="459.85 437.19 438.96 577 556.76 577 576.42 437.19 459.85 437.19"/></g></g></svg>