<svg xmlns="http://www.w3.org/2000/svg" xmlns:xlink="http://www.w3.org/1999/xlink" viewBox="0 0 2196.36 1971.55"><defs><style>.cls-1,.cls-3,.cls-8{fill:none;}.cls-2{clip-path:url(#clip-path);}.cls-3{stroke:#cfdcd5;}.cls-3,.cls-8{stroke-miterlimit:10;}.cls-4{clip-path:url(#clip-path-2);}.cls-5{fill:#e9eddf;}.cls-6{fill:#333532;}.cls-7{fill:#242422;}.cls-8{stroke:#e9eddf;}</style><clipPath id="clip-path" transform="translate(915.36 275.21)"><rect class="cls-1" x="0.16" width="1280.62" height="386.01"/></clipPath><clipPath id="clip-path-2" transform="translate(915.36 275.21)"><rect class="cls-1" x="464.54" y="562.76" width="351.85" height="1280.62" transform="translate(1843.54 562.6) rotate(90)"/></clipPath></defs><g id="Layer_2" data-name="Layer 2"><g id="page1"><g class="cls-2"><circle class="cls-3" cx="1097.31" cy="746.87" r="535.67"/><circle class="cls-3" cx="781.75" cy="746.87" r="746.37"/><circle class="cls-3" cx="1396.01" cy="746.87" r="746.37"/></g><g class="cls-4"><circle class="cls-3" cx="1062.43" cy="1224.67" r="535.67"/><circle class="cls-3" cx="746.87" cy="1224.67" r="746.37"/><circle class="cls-3" cx="1361.13" cy="1224.67" r="746.37"/></g><path class="cls-5" d="M958.67,1036.79v-8.28h-8.22v-2.82h8.22v-8.18h2.83v8.18h8.22v2.82H961.5v8.28Z" transform="translate(915.36 275.21)"/><path class="cls-5" d="M639.08,1036.79v-8.28h-8.22v-2.82h8.22v-8.18h2.83v8.18h8.22v2.82h-8.22v8.28Z" transform="translate(915.36 275.21)"/><path class="cls-5" d="M639.24,1036.79v-8.28H631v-2.82h8.22v-8.18h2.83v8.18h8.22v2.82h-8.22v8.28Z" transform="translate(915.36 275.21)"/><path class="cls-5" d="M319.65,1036.79v-8.28h-8.22v-2.82h8.22v-8.18h2.83v8.18h8.23v2.82h-8.23v8.28Z" transform="translate(915.36 275.21)"/><rect class="cls-6" x="1555.85" y="980.21" width="319.39" height="322.15"/><rect class="cls-7" x="1874.97" y="980.21" width="319.39" height="322.15"/><rect class="cls-6" x="915.36" y="980.21" width="319.39" height="322.15"/><line class="cls-8" x1="1236.15" y1="1304.21" x2="1236.15" y2="1653.89"/><line class="cls-8" x1="1555.89" y1="1304.21" x2="1555.89" y2="1653.85"/><path class="cls-5" d="M639.24,1381.79v-8.28H631v-2.82h8.22v-8.18h2.83v8.18h8.22v2.82h-8.22v8.28Z" transform="translate(915.36 275.21)"/><path class="cls-5" d="M319.65,1381.79v-8.28h-8.22v-2.82h8.22v-8.18h2.83v8.18h8.23v2.82h-8.23v8.28Z" transform="translate(915.36 275.21)"/><path class="cls-5" d="M958.68,1381.79v-8.28h-8.23v-2.82h8.23v-8.18h2.82v8.18h8.23v2.82H961.5v8.28Z" transform="translate(915.36 275.21)"/><line class="cls-8" x1="1875.45" y1="1304.21" x2="1875.45" y2="1653.85"/><path class="cls-5" d="M958.67,395.65v-8.28h-8.22v-2.82h8.22v-8.18h2.83v8.18h8.22v2.82H961.5v8.28Z" transform="translate(915.36 275.21)"/><path class="cls-5" d="M639.08,395.65v-8.28h-8.22v-2.82h8.22v-8.18h2.83v8.18h8.22v2.82h-8.22v8.28Z" transform="translate(915.36 275.21)"/><path class="cls-5" d="M319.17,395.65v-8.28H311v-2.82h8.22v-8.18H322v8.18h8.23v2.82H322v8.28Z" transform="translate(915.36 275.21)"/><line class="cls-8" x1="1236.15" y1="275.21" x2="1236.15" y2="662.21"/><line class="cls-8" x1="1555.89" y1="275.21" x2="1555.89" y2="662.16"/><line class="cls-8" x1="1875.45" y1="275.21" x2="1875.45" y2="662.21"/><line class="cls-8" x1="915.36" y1="661.22" x2="2196.36" y2="661.22"/><rect class="cls-7" x="1236.36" y="980.27" width="319.02" height="321.94"/></g></g></svg>